G04 #@! TF.GenerationSoftware,KiCad,Pcbnew,(5.1.5)-3*
G04 #@! TF.CreationDate,2021-05-04T12:01:10+03:00*
G04 #@! TF.ProjectId,NandoBoard,4e616e64-6f42-46f6-9172-642e6b696361,rev?*
G04 #@! TF.SameCoordinates,Original*
G04 #@! TF.FileFunction,Copper,L2,Bot*
G04 #@! TF.FilePolarity,Positive*
%FSLAX46Y46*%
G04 Gerber Fmt 4.6, Leading zero omitted, Abs format (unit mm)*
G04 Created by KiCad (PCBNEW (5.1.5)-3) date 2021-05-04 12:01:10*
%MOMM*%
%LPD*%
G04 APERTURE LIST*
%ADD10R,1.700000X1.700000*%
%ADD11O,1.700000X1.700000*%
%ADD12O,1.600000X1.600000*%
%ADD13R,1.600000X1.600000*%
%ADD14O,1.727200X1.727200*%
%ADD15R,1.727200X1.727200*%
%ADD16O,2.400000X1.600000*%
%ADD17R,2.400000X1.600000*%
%ADD18C,2.200000*%
%ADD19R,2.200000X2.200000*%
%ADD20C,4.400000*%
%ADD21C,0.700000*%
%ADD22C,0.800000*%
%ADD23C,0.250000*%
%ADD24C,0.500000*%
G04 APERTURE END LIST*
D10*
X61000000Y-38725000D03*
D11*
X58460000Y-38725000D03*
X61000000Y-41265000D03*
X58460000Y-41265000D03*
X61000000Y-43805000D03*
X58460000Y-43805000D03*
X61000000Y-46345000D03*
X58460000Y-46345000D03*
X61000000Y-48885000D03*
X58460000Y-48885000D03*
X61000000Y-51425000D03*
X58460000Y-51425000D03*
X61000000Y-53965000D03*
X58460000Y-53965000D03*
X61000000Y-56505000D03*
X58460000Y-56505000D03*
X61000000Y-59045000D03*
X58460000Y-59045000D03*
X61000000Y-61585000D03*
X58460000Y-61585000D03*
X61000000Y-64125000D03*
X58460000Y-64125000D03*
X61000000Y-66665000D03*
X58460000Y-66665000D03*
X61000000Y-69205000D03*
X58460000Y-69205000D03*
D12*
X131020000Y-111050000D03*
D13*
X123400000Y-111050000D03*
D12*
X118845000Y-109750000D03*
X111225000Y-112290000D03*
X118845000Y-112290000D03*
D13*
X111225000Y-109750000D03*
D12*
X99670000Y-96625000D03*
D13*
X92050000Y-96625000D03*
D12*
X122570000Y-66325000D03*
X114950000Y-73945000D03*
X122570000Y-68865000D03*
X114950000Y-71405000D03*
X122570000Y-71405000D03*
X114950000Y-68865000D03*
X122570000Y-73945000D03*
D13*
X114950000Y-66325000D03*
D14*
X58060000Y-88360000D03*
X58060000Y-90900000D03*
X55520000Y-88360000D03*
X55520000Y-90900000D03*
X52980000Y-88360000D03*
X52980000Y-90900000D03*
X50440000Y-88360000D03*
X50440000Y-90900000D03*
X47900000Y-88360000D03*
D15*
X47900000Y-90900000D03*
D11*
X47290000Y-105500000D03*
X49830000Y-105500000D03*
X52370000Y-105500000D03*
X54910000Y-105500000D03*
X57450000Y-105500000D03*
X59990000Y-105500000D03*
X62530000Y-105500000D03*
X65070000Y-105500000D03*
X67610000Y-105500000D03*
D10*
X70150000Y-105500000D03*
D11*
X70200000Y-116960000D03*
X70200000Y-119500000D03*
X67660000Y-116960000D03*
X67660000Y-119500000D03*
X65120000Y-116960000D03*
X65120000Y-119500000D03*
X62580000Y-116960000D03*
X62580000Y-119500000D03*
X60040000Y-116960000D03*
X60040000Y-119500000D03*
X57500000Y-116960000D03*
X57500000Y-119500000D03*
X54960000Y-116960000D03*
X54960000Y-119500000D03*
X52420000Y-116960000D03*
X52420000Y-119500000D03*
X49880000Y-116960000D03*
X49880000Y-119500000D03*
X47340000Y-116960000D03*
D10*
X47340000Y-119500000D03*
D11*
X74175000Y-93690000D03*
X74175000Y-91150000D03*
X74175000Y-88610000D03*
X74175000Y-86070000D03*
X74175000Y-83530000D03*
X74175000Y-80990000D03*
D10*
X74175000Y-78450000D03*
D11*
X47290000Y-110600000D03*
X49830000Y-110600000D03*
X52370000Y-110600000D03*
X54910000Y-110600000D03*
X57450000Y-110600000D03*
X59990000Y-110600000D03*
X62530000Y-110600000D03*
X65070000Y-110600000D03*
X67610000Y-110600000D03*
D10*
X70150000Y-110600000D03*
D16*
X125020000Y-122500000D03*
X117400000Y-130120000D03*
X125020000Y-125040000D03*
X117400000Y-127580000D03*
X125020000Y-127580000D03*
X117400000Y-125040000D03*
X125020000Y-130120000D03*
D17*
X117400000Y-122500000D03*
D11*
X49530000Y-46355000D03*
X49530000Y-43815000D03*
X49530000Y-41275000D03*
D10*
X49530000Y-38735000D03*
D11*
X95775000Y-88610000D03*
X95775000Y-86070000D03*
X95775000Y-83530000D03*
X95775000Y-80990000D03*
D10*
X95775000Y-78450000D03*
D18*
X70260000Y-127500000D03*
X67720000Y-127500000D03*
X65180000Y-127500000D03*
X62640000Y-127500000D03*
X60100000Y-127500000D03*
X57560000Y-127500000D03*
X55020000Y-127500000D03*
X52480000Y-127500000D03*
X49940000Y-127500000D03*
D19*
X47400000Y-127500000D03*
D13*
X126255000Y-99720000D03*
D12*
X111015000Y-41300000D03*
X126255000Y-97180000D03*
X111015000Y-43840000D03*
X126255000Y-94640000D03*
X111015000Y-46380000D03*
X126255000Y-92100000D03*
X111015000Y-48920000D03*
X126255000Y-89560000D03*
X111015000Y-51460000D03*
X126255000Y-87020000D03*
X111015000Y-54000000D03*
X126255000Y-84480000D03*
X111015000Y-56540000D03*
X126255000Y-81940000D03*
X111015000Y-59080000D03*
X126255000Y-79400000D03*
X111015000Y-61620000D03*
X126255000Y-76860000D03*
X111015000Y-64160000D03*
X126255000Y-74320000D03*
X111015000Y-66700000D03*
X126255000Y-71780000D03*
X111015000Y-69240000D03*
X126255000Y-69240000D03*
X111015000Y-71780000D03*
X126255000Y-66700000D03*
X111015000Y-74320000D03*
X126255000Y-64160000D03*
X111015000Y-76860000D03*
X126255000Y-61620000D03*
X111015000Y-79400000D03*
X126255000Y-59080000D03*
X111015000Y-81940000D03*
X126255000Y-56540000D03*
X111015000Y-84480000D03*
X126255000Y-54000000D03*
X111015000Y-87020000D03*
X126255000Y-51460000D03*
X111015000Y-89560000D03*
X126255000Y-48920000D03*
X111015000Y-92100000D03*
X126255000Y-46380000D03*
X111015000Y-94640000D03*
X126255000Y-43840000D03*
X111015000Y-97180000D03*
X126255000Y-41300000D03*
X111015000Y-99720000D03*
D20*
X42690000Y-39650000D03*
D21*
X44340000Y-39650000D03*
X43856726Y-40816726D03*
X42690000Y-41300000D03*
X41523274Y-40816726D03*
X41040000Y-39650000D03*
X41523274Y-38483274D03*
X42690000Y-38000000D03*
X43856726Y-38483274D03*
X135256726Y-40816726D03*
X135740000Y-39650000D03*
X135256726Y-38483274D03*
X134090000Y-38000000D03*
X132923274Y-38483274D03*
X132440000Y-39650000D03*
X132923274Y-40816726D03*
X134090000Y-41300000D03*
D20*
X134090000Y-39650000D03*
D21*
X132923274Y-132216726D03*
X134090000Y-132700000D03*
X135256726Y-132216726D03*
X135740000Y-131050000D03*
X135256726Y-129883274D03*
X134090000Y-129400000D03*
X132923274Y-129883274D03*
X132440000Y-131050000D03*
D20*
X134090000Y-131050000D03*
D21*
X41523274Y-129883274D03*
X41040000Y-131050000D03*
X41523274Y-132216726D03*
X42690000Y-132700000D03*
X43856726Y-132216726D03*
X44340000Y-131050000D03*
X43856726Y-129883274D03*
X42690000Y-129400000D03*
D20*
X42690000Y-131050000D03*
D11*
X94025000Y-69205000D03*
X96565000Y-69205000D03*
X94025000Y-66665000D03*
X96565000Y-66665000D03*
X94025000Y-64125000D03*
X96565000Y-64125000D03*
X94025000Y-61585000D03*
X96565000Y-61585000D03*
X94025000Y-59045000D03*
X96565000Y-59045000D03*
X94025000Y-56505000D03*
X96565000Y-56505000D03*
X94025000Y-53965000D03*
X96565000Y-53965000D03*
X94025000Y-51425000D03*
X96565000Y-51425000D03*
X94025000Y-48885000D03*
X96565000Y-48885000D03*
X94025000Y-46345000D03*
X96565000Y-46345000D03*
X94025000Y-43805000D03*
X96565000Y-43805000D03*
X94025000Y-41265000D03*
X96565000Y-41265000D03*
X94025000Y-38725000D03*
D10*
X96565000Y-38725000D03*
X43815000Y-53340000D03*
D11*
X43815000Y-55880000D03*
X43815000Y-58420000D03*
X43815000Y-60960000D03*
X43815000Y-63500000D03*
X43815000Y-66040000D03*
X43815000Y-68580000D03*
X43815000Y-71120000D03*
X43815000Y-73660000D03*
D22*
X108500000Y-124650000D03*
X127100000Y-118500000D03*
X120950000Y-117300000D03*
X117550000Y-117300000D03*
X55450000Y-94688600D03*
X69200000Y-99200000D03*
X104300000Y-111000000D03*
X117250000Y-61500000D03*
X105450000Y-62750000D03*
X90150000Y-71700000D03*
X105500000Y-58050000D03*
X90650000Y-55000000D03*
X72750000Y-55950000D03*
X72000000Y-59150000D03*
X58460000Y-66665000D03*
X61400000Y-75700000D03*
X84100000Y-76600000D03*
X87800000Y-83550000D03*
X103900000Y-72350000D03*
X104650000Y-76800000D03*
X89350000Y-57500000D03*
X66550000Y-47800000D03*
X52705000Y-43354999D03*
X68891459Y-89608541D03*
X90300000Y-70600000D03*
X88050000Y-70600000D03*
X88000000Y-82200000D03*
X85550000Y-79750000D03*
X73900000Y-57900000D03*
X73900000Y-56150000D03*
X95250000Y-70975000D03*
X91150000Y-76350000D03*
X118050000Y-82250000D03*
X68650000Y-77350000D03*
X71650000Y-68600000D03*
X83950000Y-68565001D03*
X85515000Y-66665000D03*
X82300000Y-93300000D03*
X99550000Y-74250000D03*
X99450000Y-69400000D03*
X100677653Y-63577653D03*
X102400000Y-58750000D03*
X115050000Y-55250000D03*
X128900000Y-83250000D03*
X76950000Y-97100000D03*
X65700000Y-58000000D03*
X63150000Y-54415001D03*
X63200000Y-57100000D03*
X69511306Y-60613388D03*
X79850000Y-75100000D03*
X86300000Y-77500000D03*
X87325000Y-78847805D03*
X99050000Y-77300000D03*
X99850000Y-82700000D03*
X117200000Y-59100000D03*
X105300000Y-61300000D03*
X71900000Y-101000000D03*
X61086400Y-95213600D03*
X79150000Y-79550000D03*
X79900000Y-77500000D03*
X85100000Y-77400000D03*
X91400000Y-65200000D03*
X105150000Y-66000000D03*
X90150000Y-73200000D03*
X68950000Y-73000000D03*
X65700000Y-69200000D03*
X120600000Y-78150000D03*
X104900000Y-71400000D03*
X114400000Y-76200000D03*
X118100000Y-80250000D03*
X102800000Y-54900000D03*
X111015000Y-56540000D03*
X81950000Y-78450000D03*
X78750000Y-63050000D03*
X76400000Y-66050000D03*
X74750000Y-67700000D03*
X78350000Y-87300000D03*
X80800000Y-61400000D03*
X80800000Y-57900000D03*
X83300000Y-55400000D03*
D23*
X111225000Y-109750000D02*
X108300000Y-109750000D01*
X108300000Y-109750000D02*
X106250000Y-111800000D01*
X106250000Y-111800000D02*
X106250000Y-122400000D01*
X106250000Y-122400000D02*
X108500000Y-124650000D01*
D24*
X127100000Y-118500000D02*
X125900000Y-117300000D01*
X125900000Y-117300000D02*
X120950000Y-117300000D01*
X116235000Y-117300000D02*
X111225000Y-112290000D01*
X117550000Y-117300000D02*
X116235000Y-117300000D01*
D23*
X52980000Y-90900000D02*
X52980000Y-92218600D01*
X52980000Y-92218600D02*
X55450000Y-94688600D01*
X69200000Y-99200000D02*
X92500000Y-99200000D01*
X92500000Y-99200000D02*
X104300000Y-111000000D01*
D24*
X63375000Y-64125000D02*
X61000000Y-64125000D01*
X64450000Y-63050000D02*
X63375000Y-64125000D01*
X64450000Y-74350000D02*
X50440000Y-88360000D01*
X64450000Y-63050000D02*
X64450000Y-74350000D01*
X47900000Y-88360000D02*
X50440000Y-88360000D01*
X94025000Y-51425000D02*
X92822919Y-51425000D01*
X83847919Y-60400000D02*
X70500000Y-60400000D01*
X70500000Y-60400000D02*
X64250000Y-54150000D01*
X64250000Y-54150000D02*
X64450000Y-63050000D01*
X87847919Y-59150000D02*
X85200000Y-59150000D01*
X92822919Y-64125000D02*
X87847919Y-59150000D01*
X94025000Y-64125000D02*
X92822919Y-64125000D01*
X85200000Y-59150000D02*
X83847919Y-60400000D01*
X125485000Y-71780000D02*
X122570000Y-68865000D01*
X126255000Y-71780000D02*
X125485000Y-71780000D01*
X122570000Y-68865000D02*
X122570000Y-66325000D01*
X92822919Y-51425000D02*
X85200000Y-59150000D01*
X111015000Y-71780000D02*
X101450000Y-81345000D01*
X101450000Y-82935000D02*
X95775000Y-88610000D01*
X101450000Y-81345000D02*
X101450000Y-82935000D01*
X95775000Y-88610000D02*
X92960000Y-88610000D01*
X92960000Y-88610000D02*
X89300000Y-84950000D01*
X89300000Y-68850000D02*
X94025000Y-64125000D01*
X89300000Y-84950000D02*
X89300000Y-68850000D01*
X97705000Y-88610000D02*
X103650000Y-94555000D01*
X95775000Y-88610000D02*
X97705000Y-88610000D01*
X103650000Y-94555000D02*
X103650000Y-103450000D01*
X103650000Y-103450000D02*
X105600000Y-105400000D01*
X114495000Y-105400000D02*
X118845000Y-109750000D01*
X105600000Y-105400000D02*
X114495000Y-105400000D01*
X118845000Y-109750000D02*
X118845000Y-112290000D01*
X128980001Y-113089999D02*
X130220001Y-111849999D01*
X119644999Y-113089999D02*
X128980001Y-113089999D01*
X130220001Y-111849999D02*
X131020000Y-111050000D01*
X118845000Y-112290000D02*
X119644999Y-113089999D01*
X123320000Y-122500000D02*
X125020000Y-122500000D01*
X118845000Y-118025000D02*
X123320000Y-122500000D01*
X118845000Y-112290000D02*
X118845000Y-118025000D01*
X125020000Y-122500000D02*
X125020000Y-125040000D01*
X64055000Y-43805000D02*
X64450000Y-44200000D01*
X61000000Y-43805000D02*
X64055000Y-43805000D01*
X61849999Y-50575001D02*
X61000000Y-51425000D01*
X63724999Y-50575001D02*
X61849999Y-50575001D01*
X64450000Y-44200000D02*
X64450000Y-49850000D01*
X64450000Y-49850000D02*
X63724999Y-50575001D01*
X63724999Y-53624999D02*
X64250000Y-54150000D01*
X63724999Y-50575001D02*
X63724999Y-53624999D01*
X125455001Y-72579999D02*
X126255000Y-71780000D01*
X125455001Y-73269997D02*
X125455001Y-72579999D01*
X123200000Y-75524998D02*
X125455001Y-73269997D01*
X112950000Y-73715000D02*
X112950000Y-76150000D01*
X112950000Y-76150000D02*
X113850000Y-77050000D01*
X111015000Y-71780000D02*
X112950000Y-73715000D01*
X113850000Y-77050000D02*
X123200000Y-77050000D01*
X123200000Y-77050000D02*
X123200000Y-75524998D01*
D23*
X126255000Y-59080000D02*
X119670000Y-59080000D01*
X119670000Y-59080000D02*
X117250000Y-61500000D01*
X105450000Y-62750000D02*
X102100000Y-66100000D01*
X102100000Y-66100000D02*
X102100000Y-70550000D01*
X102100000Y-70550000D02*
X100950000Y-71700000D01*
X100950000Y-71700000D02*
X90150000Y-71700000D01*
X93519999Y-57869999D02*
X90650000Y-55000000D01*
X104754314Y-57869999D02*
X93519999Y-57869999D01*
X105500000Y-58050000D02*
X104934315Y-58050000D01*
X104934315Y-58050000D02*
X104754314Y-57869999D01*
X72750000Y-55950000D02*
X72750000Y-58400000D01*
X72750000Y-58400000D02*
X72000000Y-59150000D01*
X57284999Y-71584999D02*
X61400000Y-75700000D01*
X58460000Y-56505000D02*
X57284999Y-57680001D01*
X57284999Y-57680001D02*
X57284999Y-71584999D01*
X84100000Y-76600000D02*
X84100000Y-79850000D01*
X84100000Y-79850000D02*
X87800000Y-83550000D01*
X55890000Y-56505000D02*
X43815000Y-68580000D01*
X58460000Y-56505000D02*
X55890000Y-56505000D01*
X103900000Y-72350000D02*
X104650000Y-73100000D01*
X104650000Y-73100000D02*
X104650000Y-76800000D01*
X53350000Y-53965000D02*
X43815000Y-63500000D01*
X58460000Y-53965000D02*
X53350000Y-53965000D01*
X92070001Y-60220001D02*
X89350000Y-57500000D01*
X111015000Y-59080000D02*
X109874999Y-60220001D01*
X109874999Y-60220001D02*
X92070001Y-60220001D01*
X53350000Y-51425000D02*
X43815000Y-60960000D01*
X58460000Y-51425000D02*
X53350000Y-51425000D01*
X68999999Y-50249999D02*
X66550000Y-47800000D01*
X111015000Y-54000000D02*
X107264999Y-50249999D01*
X107264999Y-50249999D02*
X68999999Y-50249999D01*
X58460000Y-48885000D02*
X52929999Y-43354999D01*
X52929999Y-43354999D02*
X52705000Y-43354999D01*
X52705000Y-46990000D02*
X43815000Y-55880000D01*
X52705000Y-43354999D02*
X52705000Y-46990000D01*
X70636459Y-89608541D02*
X74175000Y-86070000D01*
X68891459Y-89608541D02*
X70636459Y-89608541D01*
X68474999Y-90025001D02*
X68491460Y-90008540D01*
X100172008Y-131245010D02*
X68474999Y-99548001D01*
X125885994Y-131245010D02*
X100172008Y-131245010D01*
X68474999Y-99548001D02*
X68474999Y-90025001D01*
X126545010Y-130585994D02*
X125885994Y-131245010D01*
X126545010Y-127655010D02*
X126545010Y-130585994D01*
X126470000Y-127580000D02*
X126545010Y-127655010D01*
X68491460Y-90008540D02*
X68891459Y-89608541D01*
X125020000Y-127580000D02*
X126470000Y-127580000D01*
X94025000Y-69205000D02*
X91695000Y-69205000D01*
X91695000Y-69205000D02*
X90300000Y-70600000D01*
X88050000Y-70600000D02*
X88050000Y-82150000D01*
X88050000Y-82150000D02*
X88000000Y-82200000D01*
X88000000Y-82200000D02*
X85550000Y-79750000D01*
X51628601Y-89711399D02*
X51303599Y-90036401D01*
X55927731Y-89711399D02*
X51628601Y-89711399D01*
X56871399Y-88767731D02*
X55927731Y-89711399D01*
X51303599Y-90036401D02*
X50440000Y-90900000D01*
X56871399Y-87789471D02*
X56871399Y-88767731D01*
X63670870Y-80990000D02*
X56871399Y-87789471D01*
X74175000Y-80990000D02*
X63670870Y-80990000D01*
X73900000Y-57900000D02*
X73900000Y-56150000D01*
X94025000Y-66665000D02*
X95250000Y-67890000D01*
X95250000Y-67890000D02*
X95250000Y-70975000D01*
X91090000Y-80990000D02*
X95775000Y-80990000D01*
X90450000Y-80350000D02*
X91090000Y-80990000D01*
X91150000Y-76350000D02*
X90450000Y-77050000D01*
X90450000Y-77050000D02*
X90450000Y-80350000D01*
X125945000Y-82250000D02*
X126255000Y-81940000D01*
X118050000Y-82250000D02*
X125945000Y-82250000D01*
X68650000Y-77350000D02*
X71650000Y-74350000D01*
X71650000Y-74350000D02*
X71650000Y-68600000D01*
X84349999Y-68165002D02*
X84349999Y-67350001D01*
X83950000Y-68565001D02*
X84349999Y-68165002D01*
X84349999Y-67350001D02*
X85050000Y-66650000D01*
X85050000Y-66650000D02*
X85500000Y-66650000D01*
X85500000Y-66650000D02*
X85515000Y-66665000D01*
X75024999Y-91999999D02*
X74175000Y-91150000D01*
X75350001Y-92325001D02*
X75024999Y-91999999D01*
X75350001Y-96573003D02*
X75350001Y-92325001D01*
X76601999Y-97825001D02*
X75350001Y-96573003D01*
X77774999Y-97825001D02*
X76601999Y-97825001D01*
X82300000Y-93300000D02*
X77774999Y-97825001D01*
X96950001Y-76849999D02*
X99550000Y-74250000D01*
X95775000Y-86070000D02*
X96950001Y-84894999D01*
X96950001Y-84894999D02*
X96950001Y-76849999D01*
X99450000Y-69400000D02*
X100677653Y-68172347D01*
X100677653Y-68172347D02*
X100677653Y-63577653D01*
X102799999Y-59149999D02*
X109279999Y-59149999D01*
X109279999Y-59149999D02*
X110474999Y-57954999D01*
X102400000Y-58750000D02*
X102799999Y-59149999D01*
X110474999Y-57954999D02*
X112345001Y-57954999D01*
X112345001Y-57954999D02*
X115050000Y-55250000D01*
X127485000Y-83250000D02*
X126255000Y-84480000D01*
X128900000Y-83250000D02*
X127485000Y-83250000D01*
D24*
X114950000Y-71405000D02*
X114950000Y-73945000D01*
X111814999Y-42099999D02*
X111015000Y-41300000D01*
X116200001Y-46485001D02*
X111814999Y-42099999D01*
X116200001Y-70154999D02*
X116200001Y-46485001D01*
X114950000Y-71405000D02*
X116200001Y-70154999D01*
D23*
X76950000Y-78939998D02*
X73350000Y-75339998D01*
X76950000Y-97100000D02*
X76950000Y-78939998D01*
X73350000Y-75339998D02*
X73350000Y-65650000D01*
X73350000Y-65650000D02*
X65700000Y-58000000D01*
X63150000Y-54415001D02*
X63150000Y-57050000D01*
X63150000Y-57050000D02*
X63200000Y-57100000D01*
X69511306Y-60613388D02*
X79850000Y-70952082D01*
X79850000Y-70952082D02*
X79850000Y-75100000D01*
X86300000Y-77500000D02*
X86300000Y-77822805D01*
X86300000Y-77822805D02*
X87325000Y-78847805D01*
X99050000Y-77300000D02*
X99850000Y-78100000D01*
X99850000Y-78100000D02*
X99850000Y-82700000D01*
X54714999Y-55140001D02*
X44664999Y-65190001D01*
X59824999Y-55140001D02*
X54714999Y-55140001D01*
X44664999Y-65190001D02*
X43815000Y-66040000D01*
X61000000Y-53965000D02*
X59824999Y-55140001D01*
X47900000Y-92013600D02*
X51300000Y-95413600D01*
X47900000Y-90900000D02*
X47900000Y-92013600D01*
X51300000Y-95413600D02*
X61086400Y-95413600D01*
X72970000Y-83530000D02*
X74175000Y-83530000D01*
X61086400Y-95413600D02*
X72970000Y-83530000D01*
X126255000Y-56540000D02*
X119760000Y-56540000D01*
X119760000Y-56540000D02*
X117200000Y-59100000D01*
X101930000Y-61300000D02*
X96565000Y-66665000D01*
X105300000Y-61300000D02*
X101930000Y-61300000D01*
X112624989Y-125825011D02*
X96725011Y-125825011D01*
X96725011Y-125825011D02*
X71900000Y-101000000D01*
X117400000Y-122500000D02*
X115950000Y-122500000D01*
X115950000Y-122500000D02*
X112624989Y-125825011D01*
X79150000Y-79550000D02*
X79150000Y-78250000D01*
X79150000Y-78250000D02*
X79900000Y-77500000D01*
X85100000Y-77400000D02*
X85100000Y-71500000D01*
X85100000Y-71500000D02*
X91400000Y-65200000D01*
X105150000Y-68136410D02*
X104100000Y-69186410D01*
X105150000Y-66000000D02*
X105150000Y-68136410D01*
X104100000Y-69186410D02*
X104100000Y-71050000D01*
X104100000Y-71050000D02*
X101950000Y-73200000D01*
X101950000Y-73200000D02*
X90150000Y-73200000D01*
X68950000Y-73000000D02*
X65700000Y-69750000D01*
X65700000Y-69750000D02*
X65700000Y-69200000D01*
D24*
X114950000Y-65025000D02*
X114950000Y-66325000D01*
X114085000Y-64160000D02*
X114950000Y-65025000D01*
X111015000Y-64160000D02*
X114085000Y-64160000D01*
X114950000Y-68865000D02*
X114950000Y-66325000D01*
X112305000Y-78150000D02*
X111015000Y-76860000D01*
X120600000Y-78150000D02*
X112305000Y-78150000D01*
D23*
X113813186Y-75613186D02*
X114400000Y-76200000D01*
X105645001Y-70654999D02*
X111555001Y-70654999D01*
X111555001Y-70654999D02*
X113813186Y-72913184D01*
X104900000Y-71400000D02*
X105645001Y-70654999D01*
X113813186Y-72913184D02*
X113813186Y-75613186D01*
X118950000Y-79400000D02*
X126255000Y-79400000D01*
X118100000Y-80250000D02*
X118950000Y-79400000D01*
X102800000Y-54900000D02*
X109375000Y-54900000D01*
X109375000Y-54900000D02*
X111015000Y-56540000D01*
X44664999Y-57570001D02*
X43815000Y-58420000D01*
X52174999Y-50060001D02*
X44664999Y-57570001D01*
X59824999Y-50060001D02*
X52174999Y-50060001D01*
X61000000Y-48885000D02*
X59824999Y-50060001D01*
X60150001Y-45495001D02*
X61000000Y-46345000D01*
X59635001Y-44980001D02*
X60150001Y-45495001D01*
X59635001Y-43430997D02*
X59635001Y-44980001D01*
X60435999Y-42629999D02*
X59635001Y-43430997D01*
X101053629Y-42629999D02*
X60435999Y-42629999D01*
X109883630Y-51460000D02*
X101053629Y-42629999D01*
X111015000Y-51460000D02*
X109883630Y-51460000D01*
X50379999Y-42965001D02*
X49530000Y-43815000D01*
X50715001Y-42629999D02*
X50379999Y-42965001D01*
X59024001Y-42629999D02*
X50715001Y-42629999D01*
X59635001Y-43240999D02*
X59024001Y-42629999D01*
X59635001Y-43430997D02*
X59635001Y-43240999D01*
X43815000Y-52240000D02*
X43815000Y-53340000D01*
X48327919Y-43815000D02*
X43815000Y-48327919D01*
X43815000Y-48327919D02*
X43815000Y-52240000D01*
X49530000Y-43815000D02*
X48327919Y-43815000D01*
X74175000Y-78450000D02*
X63850000Y-78450000D01*
X55520000Y-86780000D02*
X55520000Y-88360000D01*
X63850000Y-78450000D02*
X55520000Y-86780000D01*
X99670000Y-100283186D02*
X99670000Y-97756370D01*
X105025001Y-105638187D02*
X99670000Y-100283186D01*
X108848001Y-125375001D02*
X108151999Y-125375001D01*
X99670000Y-97756370D02*
X99670000Y-96625000D01*
X108151999Y-125375001D02*
X105025001Y-122248003D01*
X115735002Y-118488000D02*
X108848001Y-125375001D01*
X115973002Y-118488000D02*
X115735002Y-118488000D01*
X105025001Y-122248003D02*
X105025001Y-105638187D01*
X118925001Y-121439999D02*
X115973002Y-118488000D01*
X118925001Y-124425001D02*
X118925001Y-121439999D01*
X124620000Y-130120000D02*
X118925001Y-124425001D01*
X125020000Y-130120000D02*
X124620000Y-130120000D01*
X99670000Y-96625000D02*
X81950000Y-78905000D01*
X81950000Y-78905000D02*
X81950000Y-78450000D01*
X78750000Y-63050000D02*
X76400000Y-65400000D01*
X76400000Y-65400000D02*
X76400000Y-66050000D01*
X74750000Y-67700000D02*
X78350000Y-71300000D01*
X78350000Y-71300000D02*
X78350000Y-87300000D01*
X80800000Y-86425000D02*
X80800000Y-61400000D01*
X92050000Y-96625000D02*
X91000000Y-96625000D01*
X91000000Y-96625000D02*
X80800000Y-86425000D01*
X80800000Y-57900000D02*
X83300000Y-55400000D01*
M02*
