G04 #@! TF.GenerationSoftware,KiCad,Pcbnew,(5.1.5)-3*
G04 #@! TF.CreationDate,2021-05-04T12:01:10+03:00*
G04 #@! TF.ProjectId,NandoBoard,4e616e64-6f42-46f6-9172-642e6b696361,rev?*
G04 #@! TF.SameCoordinates,Original*
G04 #@! TF.FileFunction,Copper,L1,Top*
G04 #@! TF.FilePolarity,Positive*
%FSLAX46Y46*%
G04 Gerber Fmt 4.6, Leading zero omitted, Abs format (unit mm)*
G04 Created by KiCad (PCBNEW (5.1.5)-3) date 2021-05-04 12:01:10*
%MOMM*%
%LPD*%
G04 APERTURE LIST*
%ADD10R,1.700000X1.700000*%
%ADD11O,1.700000X1.700000*%
%ADD12O,1.600000X1.600000*%
%ADD13R,1.600000X1.600000*%
%ADD14C,0.100000*%
%ADD15O,1.727200X1.727200*%
%ADD16R,1.727200X1.727200*%
%ADD17O,2.400000X1.600000*%
%ADD18R,2.400000X1.600000*%
%ADD19C,2.200000*%
%ADD20R,2.200000X2.200000*%
%ADD21C,4.400000*%
%ADD22C,0.700000*%
%ADD23C,0.800000*%
%ADD24C,0.250000*%
%ADD25C,0.500000*%
G04 APERTURE END LIST*
D10*
X61000000Y-38725000D03*
D11*
X58460000Y-38725000D03*
X61000000Y-41265000D03*
X58460000Y-41265000D03*
X61000000Y-43805000D03*
X58460000Y-43805000D03*
X61000000Y-46345000D03*
X58460000Y-46345000D03*
X61000000Y-48885000D03*
X58460000Y-48885000D03*
X61000000Y-51425000D03*
X58460000Y-51425000D03*
X61000000Y-53965000D03*
X58460000Y-53965000D03*
X61000000Y-56505000D03*
X58460000Y-56505000D03*
X61000000Y-59045000D03*
X58460000Y-59045000D03*
X61000000Y-61585000D03*
X58460000Y-61585000D03*
X61000000Y-64125000D03*
X58460000Y-64125000D03*
X61000000Y-66665000D03*
X58460000Y-66665000D03*
X61000000Y-69205000D03*
X58460000Y-69205000D03*
D12*
X131020000Y-111050000D03*
D13*
X123400000Y-111050000D03*
D12*
X118845000Y-109750000D03*
X111225000Y-112290000D03*
X118845000Y-112290000D03*
D13*
X111225000Y-109750000D03*
D12*
X99670000Y-96625000D03*
D13*
X92050000Y-96625000D03*
D12*
X122570000Y-66325000D03*
X114950000Y-73945000D03*
X122570000Y-68865000D03*
X114950000Y-71405000D03*
X122570000Y-71405000D03*
X114950000Y-68865000D03*
X122570000Y-73945000D03*
D13*
X114950000Y-66325000D03*
G04 #@! TA.AperFunction,SMDPad,CuDef*
D14*
G36*
X80949505Y-53576204D02*
G01*
X80973773Y-53579804D01*
X80997572Y-53585765D01*
X81020671Y-53594030D01*
X81042850Y-53604520D01*
X81063893Y-53617132D01*
X81083599Y-53631747D01*
X81101777Y-53648223D01*
X81118253Y-53666401D01*
X81132868Y-53686107D01*
X81145480Y-53707150D01*
X81155970Y-53729329D01*
X81164235Y-53752428D01*
X81170196Y-53776227D01*
X81173796Y-53800495D01*
X81175000Y-53824999D01*
X81175000Y-55975001D01*
X81173796Y-55999505D01*
X81170196Y-56023773D01*
X81164235Y-56047572D01*
X81155970Y-56070671D01*
X81145480Y-56092850D01*
X81132868Y-56113893D01*
X81118253Y-56133599D01*
X81101777Y-56151777D01*
X81083599Y-56168253D01*
X81063893Y-56182868D01*
X81042850Y-56195480D01*
X81020671Y-56205970D01*
X80997572Y-56214235D01*
X80973773Y-56220196D01*
X80949505Y-56223796D01*
X80925001Y-56225000D01*
X79899999Y-56225000D01*
X79875495Y-56223796D01*
X79851227Y-56220196D01*
X79827428Y-56214235D01*
X79804329Y-56205970D01*
X79782150Y-56195480D01*
X79761107Y-56182868D01*
X79741401Y-56168253D01*
X79723223Y-56151777D01*
X79706747Y-56133599D01*
X79692132Y-56113893D01*
X79679520Y-56092850D01*
X79669030Y-56070671D01*
X79660765Y-56047572D01*
X79654804Y-56023773D01*
X79651204Y-55999505D01*
X79650000Y-55975001D01*
X79650000Y-53824999D01*
X79651204Y-53800495D01*
X79654804Y-53776227D01*
X79660765Y-53752428D01*
X79669030Y-53729329D01*
X79679520Y-53707150D01*
X79692132Y-53686107D01*
X79706747Y-53666401D01*
X79723223Y-53648223D01*
X79741401Y-53631747D01*
X79761107Y-53617132D01*
X79782150Y-53604520D01*
X79804329Y-53594030D01*
X79827428Y-53585765D01*
X79851227Y-53579804D01*
X79875495Y-53576204D01*
X79899999Y-53575000D01*
X80925001Y-53575000D01*
X80949505Y-53576204D01*
G37*
G04 #@! TD.AperFunction*
G04 #@! TA.AperFunction,SMDPad,CuDef*
G36*
X76274505Y-53576204D02*
G01*
X76298773Y-53579804D01*
X76322572Y-53585765D01*
X76345671Y-53594030D01*
X76367850Y-53604520D01*
X76388893Y-53617132D01*
X76408599Y-53631747D01*
X76426777Y-53648223D01*
X76443253Y-53666401D01*
X76457868Y-53686107D01*
X76470480Y-53707150D01*
X76480970Y-53729329D01*
X76489235Y-53752428D01*
X76495196Y-53776227D01*
X76498796Y-53800495D01*
X76500000Y-53824999D01*
X76500000Y-55975001D01*
X76498796Y-55999505D01*
X76495196Y-56023773D01*
X76489235Y-56047572D01*
X76480970Y-56070671D01*
X76470480Y-56092850D01*
X76457868Y-56113893D01*
X76443253Y-56133599D01*
X76426777Y-56151777D01*
X76408599Y-56168253D01*
X76388893Y-56182868D01*
X76367850Y-56195480D01*
X76345671Y-56205970D01*
X76322572Y-56214235D01*
X76298773Y-56220196D01*
X76274505Y-56223796D01*
X76250001Y-56225000D01*
X75224999Y-56225000D01*
X75200495Y-56223796D01*
X75176227Y-56220196D01*
X75152428Y-56214235D01*
X75129329Y-56205970D01*
X75107150Y-56195480D01*
X75086107Y-56182868D01*
X75066401Y-56168253D01*
X75048223Y-56151777D01*
X75031747Y-56133599D01*
X75017132Y-56113893D01*
X75004520Y-56092850D01*
X74994030Y-56070671D01*
X74985765Y-56047572D01*
X74979804Y-56023773D01*
X74976204Y-55999505D01*
X74975000Y-55975001D01*
X74975000Y-53824999D01*
X74976204Y-53800495D01*
X74979804Y-53776227D01*
X74985765Y-53752428D01*
X74994030Y-53729329D01*
X75004520Y-53707150D01*
X75017132Y-53686107D01*
X75031747Y-53666401D01*
X75048223Y-53648223D01*
X75066401Y-53631747D01*
X75086107Y-53617132D01*
X75107150Y-53604520D01*
X75129329Y-53594030D01*
X75152428Y-53585765D01*
X75176227Y-53579804D01*
X75200495Y-53576204D01*
X75224999Y-53575000D01*
X76250001Y-53575000D01*
X76274505Y-53576204D01*
G37*
G04 #@! TD.AperFunction*
D15*
X58060000Y-88360000D03*
X58060000Y-90900000D03*
X55520000Y-88360000D03*
X55520000Y-90900000D03*
X52980000Y-88360000D03*
X52980000Y-90900000D03*
X50440000Y-88360000D03*
X50440000Y-90900000D03*
X47900000Y-88360000D03*
D16*
X47900000Y-90900000D03*
D11*
X47290000Y-105500000D03*
X49830000Y-105500000D03*
X52370000Y-105500000D03*
X54910000Y-105500000D03*
X57450000Y-105500000D03*
X59990000Y-105500000D03*
X62530000Y-105500000D03*
X65070000Y-105500000D03*
X67610000Y-105500000D03*
D10*
X70150000Y-105500000D03*
D11*
X70200000Y-116960000D03*
X70200000Y-119500000D03*
X67660000Y-116960000D03*
X67660000Y-119500000D03*
X65120000Y-116960000D03*
X65120000Y-119500000D03*
X62580000Y-116960000D03*
X62580000Y-119500000D03*
X60040000Y-116960000D03*
X60040000Y-119500000D03*
X57500000Y-116960000D03*
X57500000Y-119500000D03*
X54960000Y-116960000D03*
X54960000Y-119500000D03*
X52420000Y-116960000D03*
X52420000Y-119500000D03*
X49880000Y-116960000D03*
X49880000Y-119500000D03*
X47340000Y-116960000D03*
D10*
X47340000Y-119500000D03*
D11*
X74175000Y-93690000D03*
X74175000Y-91150000D03*
X74175000Y-88610000D03*
X74175000Y-86070000D03*
X74175000Y-83530000D03*
X74175000Y-80990000D03*
D10*
X74175000Y-78450000D03*
D11*
X47290000Y-110600000D03*
X49830000Y-110600000D03*
X52370000Y-110600000D03*
X54910000Y-110600000D03*
X57450000Y-110600000D03*
X59990000Y-110600000D03*
X62530000Y-110600000D03*
X65070000Y-110600000D03*
X67610000Y-110600000D03*
D10*
X70150000Y-110600000D03*
D17*
X125020000Y-122500000D03*
X117400000Y-130120000D03*
X125020000Y-125040000D03*
X117400000Y-127580000D03*
X125020000Y-127580000D03*
X117400000Y-125040000D03*
X125020000Y-130120000D03*
D18*
X117400000Y-122500000D03*
D11*
X49530000Y-46355000D03*
X49530000Y-43815000D03*
X49530000Y-41275000D03*
D10*
X49530000Y-38735000D03*
D11*
X95775000Y-88610000D03*
X95775000Y-86070000D03*
X95775000Y-83530000D03*
X95775000Y-80990000D03*
D10*
X95775000Y-78450000D03*
D19*
X70260000Y-127500000D03*
X67720000Y-127500000D03*
X65180000Y-127500000D03*
X62640000Y-127500000D03*
X60100000Y-127500000D03*
X57560000Y-127500000D03*
X55020000Y-127500000D03*
X52480000Y-127500000D03*
X49940000Y-127500000D03*
D20*
X47400000Y-127500000D03*
G04 #@! TA.AperFunction,SMDPad,CuDef*
D14*
G36*
X130949504Y-127551204D02*
G01*
X130973773Y-127554804D01*
X130997571Y-127560765D01*
X131020671Y-127569030D01*
X131042849Y-127579520D01*
X131063893Y-127592133D01*
X131083598Y-127606747D01*
X131101777Y-127623223D01*
X131118253Y-127641402D01*
X131132867Y-127661107D01*
X131145480Y-127682151D01*
X131155970Y-127704329D01*
X131164235Y-127727429D01*
X131170196Y-127751227D01*
X131173796Y-127775496D01*
X131175000Y-127800000D01*
X131175000Y-128550000D01*
X131173796Y-128574504D01*
X131170196Y-128598773D01*
X131164235Y-128622571D01*
X131155970Y-128645671D01*
X131145480Y-128667849D01*
X131132867Y-128688893D01*
X131118253Y-128708598D01*
X131101777Y-128726777D01*
X131083598Y-128743253D01*
X131063893Y-128757867D01*
X131042849Y-128770480D01*
X131020671Y-128780970D01*
X130997571Y-128789235D01*
X130973773Y-128795196D01*
X130949504Y-128798796D01*
X130925000Y-128800000D01*
X129675000Y-128800000D01*
X129650496Y-128798796D01*
X129626227Y-128795196D01*
X129602429Y-128789235D01*
X129579329Y-128780970D01*
X129557151Y-128770480D01*
X129536107Y-128757867D01*
X129516402Y-128743253D01*
X129498223Y-128726777D01*
X129481747Y-128708598D01*
X129467133Y-128688893D01*
X129454520Y-128667849D01*
X129444030Y-128645671D01*
X129435765Y-128622571D01*
X129429804Y-128598773D01*
X129426204Y-128574504D01*
X129425000Y-128550000D01*
X129425000Y-127800000D01*
X129426204Y-127775496D01*
X129429804Y-127751227D01*
X129435765Y-127727429D01*
X129444030Y-127704329D01*
X129454520Y-127682151D01*
X129467133Y-127661107D01*
X129481747Y-127641402D01*
X129498223Y-127623223D01*
X129516402Y-127606747D01*
X129536107Y-127592133D01*
X129557151Y-127579520D01*
X129579329Y-127569030D01*
X129602429Y-127560765D01*
X129626227Y-127554804D01*
X129650496Y-127551204D01*
X129675000Y-127550000D01*
X130925000Y-127550000D01*
X130949504Y-127551204D01*
G37*
G04 #@! TD.AperFunction*
G04 #@! TA.AperFunction,SMDPad,CuDef*
G36*
X130949504Y-124751204D02*
G01*
X130973773Y-124754804D01*
X130997571Y-124760765D01*
X131020671Y-124769030D01*
X131042849Y-124779520D01*
X131063893Y-124792133D01*
X131083598Y-124806747D01*
X131101777Y-124823223D01*
X131118253Y-124841402D01*
X131132867Y-124861107D01*
X131145480Y-124882151D01*
X131155970Y-124904329D01*
X131164235Y-124927429D01*
X131170196Y-124951227D01*
X131173796Y-124975496D01*
X131175000Y-125000000D01*
X131175000Y-125750000D01*
X131173796Y-125774504D01*
X131170196Y-125798773D01*
X131164235Y-125822571D01*
X131155970Y-125845671D01*
X131145480Y-125867849D01*
X131132867Y-125888893D01*
X131118253Y-125908598D01*
X131101777Y-125926777D01*
X131083598Y-125943253D01*
X131063893Y-125957867D01*
X131042849Y-125970480D01*
X131020671Y-125980970D01*
X130997571Y-125989235D01*
X130973773Y-125995196D01*
X130949504Y-125998796D01*
X130925000Y-126000000D01*
X129675000Y-126000000D01*
X129650496Y-125998796D01*
X129626227Y-125995196D01*
X129602429Y-125989235D01*
X129579329Y-125980970D01*
X129557151Y-125970480D01*
X129536107Y-125957867D01*
X129516402Y-125943253D01*
X129498223Y-125926777D01*
X129481747Y-125908598D01*
X129467133Y-125888893D01*
X129454520Y-125867849D01*
X129444030Y-125845671D01*
X129435765Y-125822571D01*
X129429804Y-125798773D01*
X129426204Y-125774504D01*
X129425000Y-125750000D01*
X129425000Y-125000000D01*
X129426204Y-124975496D01*
X129429804Y-124951227D01*
X129435765Y-124927429D01*
X129444030Y-124904329D01*
X129454520Y-124882151D01*
X129467133Y-124861107D01*
X129481747Y-124841402D01*
X129498223Y-124823223D01*
X129516402Y-124806747D01*
X129536107Y-124792133D01*
X129557151Y-124779520D01*
X129579329Y-124769030D01*
X129602429Y-124760765D01*
X129626227Y-124754804D01*
X129650496Y-124751204D01*
X129675000Y-124750000D01*
X130925000Y-124750000D01*
X130949504Y-124751204D01*
G37*
G04 #@! TD.AperFunction*
G04 #@! TA.AperFunction,SMDPad,CuDef*
G36*
X112874504Y-128576204D02*
G01*
X112898773Y-128579804D01*
X112922571Y-128585765D01*
X112945671Y-128594030D01*
X112967849Y-128604520D01*
X112988893Y-128617133D01*
X113008598Y-128631747D01*
X113026777Y-128648223D01*
X113043253Y-128666402D01*
X113057867Y-128686107D01*
X113070480Y-128707151D01*
X113080970Y-128729329D01*
X113089235Y-128752429D01*
X113095196Y-128776227D01*
X113098796Y-128800496D01*
X113100000Y-128825000D01*
X113100000Y-130400000D01*
X113098796Y-130424504D01*
X113095196Y-130448773D01*
X113089235Y-130472571D01*
X113080970Y-130495671D01*
X113070480Y-130517849D01*
X113057867Y-130538893D01*
X113043253Y-130558598D01*
X113026777Y-130576777D01*
X113008598Y-130593253D01*
X112988893Y-130607867D01*
X112967849Y-130620480D01*
X112945671Y-130630970D01*
X112922571Y-130639235D01*
X112898773Y-130645196D01*
X112874504Y-130648796D01*
X112850000Y-130650000D01*
X111000000Y-130650000D01*
X110975496Y-130648796D01*
X110951227Y-130645196D01*
X110927429Y-130639235D01*
X110904329Y-130630970D01*
X110882151Y-130620480D01*
X110861107Y-130607867D01*
X110841402Y-130593253D01*
X110823223Y-130576777D01*
X110806747Y-130558598D01*
X110792133Y-130538893D01*
X110779520Y-130517849D01*
X110769030Y-130495671D01*
X110760765Y-130472571D01*
X110754804Y-130448773D01*
X110751204Y-130424504D01*
X110750000Y-130400000D01*
X110750000Y-128825000D01*
X110751204Y-128800496D01*
X110754804Y-128776227D01*
X110760765Y-128752429D01*
X110769030Y-128729329D01*
X110779520Y-128707151D01*
X110792133Y-128686107D01*
X110806747Y-128666402D01*
X110823223Y-128648223D01*
X110841402Y-128631747D01*
X110861107Y-128617133D01*
X110882151Y-128604520D01*
X110904329Y-128594030D01*
X110927429Y-128585765D01*
X110951227Y-128579804D01*
X110975496Y-128576204D01*
X111000000Y-128575000D01*
X112850000Y-128575000D01*
X112874504Y-128576204D01*
G37*
G04 #@! TD.AperFunction*
G04 #@! TA.AperFunction,SMDPad,CuDef*
G36*
X112874504Y-123651204D02*
G01*
X112898773Y-123654804D01*
X112922571Y-123660765D01*
X112945671Y-123669030D01*
X112967849Y-123679520D01*
X112988893Y-123692133D01*
X113008598Y-123706747D01*
X113026777Y-123723223D01*
X113043253Y-123741402D01*
X113057867Y-123761107D01*
X113070480Y-123782151D01*
X113080970Y-123804329D01*
X113089235Y-123827429D01*
X113095196Y-123851227D01*
X113098796Y-123875496D01*
X113100000Y-123900000D01*
X113100000Y-125475000D01*
X113098796Y-125499504D01*
X113095196Y-125523773D01*
X113089235Y-125547571D01*
X113080970Y-125570671D01*
X113070480Y-125592849D01*
X113057867Y-125613893D01*
X113043253Y-125633598D01*
X113026777Y-125651777D01*
X113008598Y-125668253D01*
X112988893Y-125682867D01*
X112967849Y-125695480D01*
X112945671Y-125705970D01*
X112922571Y-125714235D01*
X112898773Y-125720196D01*
X112874504Y-125723796D01*
X112850000Y-125725000D01*
X111000000Y-125725000D01*
X110975496Y-125723796D01*
X110951227Y-125720196D01*
X110927429Y-125714235D01*
X110904329Y-125705970D01*
X110882151Y-125695480D01*
X110861107Y-125682867D01*
X110841402Y-125668253D01*
X110823223Y-125651777D01*
X110806747Y-125633598D01*
X110792133Y-125613893D01*
X110779520Y-125592849D01*
X110769030Y-125570671D01*
X110760765Y-125547571D01*
X110754804Y-125523773D01*
X110751204Y-125499504D01*
X110750000Y-125475000D01*
X110750000Y-123900000D01*
X110751204Y-123875496D01*
X110754804Y-123851227D01*
X110760765Y-123827429D01*
X110769030Y-123804329D01*
X110779520Y-123782151D01*
X110792133Y-123761107D01*
X110806747Y-123741402D01*
X110823223Y-123723223D01*
X110841402Y-123706747D01*
X110861107Y-123692133D01*
X110882151Y-123679520D01*
X110904329Y-123669030D01*
X110927429Y-123660765D01*
X110951227Y-123654804D01*
X110975496Y-123651204D01*
X111000000Y-123650000D01*
X112850000Y-123650000D01*
X112874504Y-123651204D01*
G37*
G04 #@! TD.AperFunction*
D13*
X126255000Y-99720000D03*
D12*
X111015000Y-41300000D03*
X126255000Y-97180000D03*
X111015000Y-43840000D03*
X126255000Y-94640000D03*
X111015000Y-46380000D03*
X126255000Y-92100000D03*
X111015000Y-48920000D03*
X126255000Y-89560000D03*
X111015000Y-51460000D03*
X126255000Y-87020000D03*
X111015000Y-54000000D03*
X126255000Y-84480000D03*
X111015000Y-56540000D03*
X126255000Y-81940000D03*
X111015000Y-59080000D03*
X126255000Y-79400000D03*
X111015000Y-61620000D03*
X126255000Y-76860000D03*
X111015000Y-64160000D03*
X126255000Y-74320000D03*
X111015000Y-66700000D03*
X126255000Y-71780000D03*
X111015000Y-69240000D03*
X126255000Y-69240000D03*
X111015000Y-71780000D03*
X126255000Y-66700000D03*
X111015000Y-74320000D03*
X126255000Y-64160000D03*
X111015000Y-76860000D03*
X126255000Y-61620000D03*
X111015000Y-79400000D03*
X126255000Y-59080000D03*
X111015000Y-81940000D03*
X126255000Y-56540000D03*
X111015000Y-84480000D03*
X126255000Y-54000000D03*
X111015000Y-87020000D03*
X126255000Y-51460000D03*
X111015000Y-89560000D03*
X126255000Y-48920000D03*
X111015000Y-92100000D03*
X126255000Y-46380000D03*
X111015000Y-94640000D03*
X126255000Y-43840000D03*
X111015000Y-97180000D03*
X126255000Y-41300000D03*
X111015000Y-99720000D03*
D21*
X42690000Y-39650000D03*
D22*
X44340000Y-39650000D03*
X43856726Y-40816726D03*
X42690000Y-41300000D03*
X41523274Y-40816726D03*
X41040000Y-39650000D03*
X41523274Y-38483274D03*
X42690000Y-38000000D03*
X43856726Y-38483274D03*
X135256726Y-40816726D03*
X135740000Y-39650000D03*
X135256726Y-38483274D03*
X134090000Y-38000000D03*
X132923274Y-38483274D03*
X132440000Y-39650000D03*
X132923274Y-40816726D03*
X134090000Y-41300000D03*
D21*
X134090000Y-39650000D03*
D22*
X132923274Y-132216726D03*
X134090000Y-132700000D03*
X135256726Y-132216726D03*
X135740000Y-131050000D03*
X135256726Y-129883274D03*
X134090000Y-129400000D03*
X132923274Y-129883274D03*
X132440000Y-131050000D03*
D21*
X134090000Y-131050000D03*
D22*
X41523274Y-129883274D03*
X41040000Y-131050000D03*
X41523274Y-132216726D03*
X42690000Y-132700000D03*
X43856726Y-132216726D03*
X44340000Y-131050000D03*
X43856726Y-129883274D03*
X42690000Y-129400000D03*
D21*
X42690000Y-131050000D03*
D11*
X94025000Y-69205000D03*
X96565000Y-69205000D03*
X94025000Y-66665000D03*
X96565000Y-66665000D03*
X94025000Y-64125000D03*
X96565000Y-64125000D03*
X94025000Y-61585000D03*
X96565000Y-61585000D03*
X94025000Y-59045000D03*
X96565000Y-59045000D03*
X94025000Y-56505000D03*
X96565000Y-56505000D03*
X94025000Y-53965000D03*
X96565000Y-53965000D03*
X94025000Y-51425000D03*
X96565000Y-51425000D03*
X94025000Y-48885000D03*
X96565000Y-48885000D03*
X94025000Y-46345000D03*
X96565000Y-46345000D03*
X94025000Y-43805000D03*
X96565000Y-43805000D03*
X94025000Y-41265000D03*
X96565000Y-41265000D03*
X94025000Y-38725000D03*
D10*
X96565000Y-38725000D03*
X43815000Y-53340000D03*
D11*
X43815000Y-55880000D03*
X43815000Y-58420000D03*
X43815000Y-60960000D03*
X43815000Y-63500000D03*
X43815000Y-66040000D03*
X43815000Y-68580000D03*
X43815000Y-71120000D03*
X43815000Y-73660000D03*
D23*
X108500000Y-124650000D03*
X127100000Y-118500000D03*
X120950000Y-117300000D03*
X117550000Y-117300000D03*
X55450000Y-94688600D03*
X69200000Y-99200000D03*
X104300000Y-111000000D03*
X117250000Y-61500000D03*
X105450000Y-62750000D03*
X90150000Y-71700000D03*
X105500000Y-58050000D03*
X90650000Y-55000000D03*
X72750000Y-55950000D03*
X72000000Y-59150000D03*
X58460000Y-66665000D03*
X61400000Y-75700000D03*
X84100000Y-76600000D03*
X87800000Y-83550000D03*
X103900000Y-72350000D03*
X104650000Y-76800000D03*
X89350000Y-57500000D03*
X66550000Y-47800000D03*
X52705000Y-43354999D03*
X68891459Y-89608541D03*
X90300000Y-70600000D03*
X88050000Y-70600000D03*
X88000000Y-82200000D03*
X85550000Y-79750000D03*
X73900000Y-57900000D03*
X73900000Y-56150000D03*
X95250000Y-70975000D03*
X91150000Y-76350000D03*
X118050000Y-82250000D03*
X68650000Y-77350000D03*
X71650000Y-68600000D03*
X83950000Y-68565001D03*
X85515000Y-66665000D03*
X82300000Y-93300000D03*
X99550000Y-74250000D03*
X99450000Y-69400000D03*
X100677653Y-63577653D03*
X102400000Y-58750000D03*
X115050000Y-55250000D03*
X128900000Y-83250000D03*
X76950000Y-97100000D03*
X65700000Y-58000000D03*
X63150000Y-54415001D03*
X63200000Y-57100000D03*
X69511306Y-60613388D03*
X79850000Y-75100000D03*
X86300000Y-77500000D03*
X87325000Y-78847805D03*
X99050000Y-77300000D03*
X99850000Y-82700000D03*
X117200000Y-59100000D03*
X105300000Y-61300000D03*
X71900000Y-101000000D03*
X61086400Y-95213600D03*
X79150000Y-79550000D03*
X79900000Y-77500000D03*
X85100000Y-77400000D03*
X91400000Y-65200000D03*
X105150000Y-66000000D03*
X90150000Y-73200000D03*
X68950000Y-73000000D03*
X65700000Y-69200000D03*
X120600000Y-78150000D03*
X104900000Y-71400000D03*
X114400000Y-76200000D03*
X118100000Y-80250000D03*
X102800000Y-54900000D03*
X111015000Y-56540000D03*
X81950000Y-78450000D03*
X78750000Y-63050000D03*
X76400000Y-66050000D03*
X74750000Y-67700000D03*
X78350000Y-87300000D03*
X80800000Y-61400000D03*
X80800000Y-57900000D03*
X83300000Y-55400000D03*
D24*
X108537500Y-124687500D02*
X108500000Y-124650000D01*
X111925000Y-124687500D02*
X108537500Y-124687500D01*
D25*
X58460000Y-38725000D02*
X58460000Y-43805000D01*
X94025000Y-38725000D02*
X94025000Y-41265000D01*
X104250000Y-68000000D02*
X105490000Y-69240000D01*
X94025000Y-37522919D02*
X95697909Y-35850010D01*
X94025000Y-38725000D02*
X94025000Y-37522919D01*
X95697909Y-35850010D02*
X103100010Y-35850010D01*
X104250000Y-37000000D02*
X104250000Y-68000000D01*
X103100010Y-35850010D02*
X104250000Y-37000000D01*
X111814999Y-70039999D02*
X111015000Y-69240000D01*
X111929999Y-70154999D02*
X111814999Y-70039999D01*
X121319999Y-70154999D02*
X111929999Y-70154999D01*
X122570000Y-71405000D02*
X121319999Y-70154999D01*
X122570000Y-71405000D02*
X122570000Y-73945000D01*
X124090000Y-71405000D02*
X126255000Y-69240000D01*
X122570000Y-71405000D02*
X124090000Y-71405000D01*
X99200000Y-78450000D02*
X95775000Y-78450000D01*
X108410000Y-69240000D02*
X99200000Y-78450000D01*
X108410000Y-69240000D02*
X111015000Y-69240000D01*
X105490000Y-69240000D02*
X108410000Y-69240000D01*
X55520000Y-90900000D02*
X55520000Y-92570000D01*
X56640000Y-93690000D02*
X74175000Y-93690000D01*
X55520000Y-92570000D02*
X56640000Y-93690000D01*
X119100000Y-130120000D02*
X117400000Y-130120000D01*
X120350010Y-131370010D02*
X119100000Y-130120000D01*
X127729990Y-131370010D02*
X120350010Y-131370010D01*
X130300000Y-128800000D02*
X127729990Y-131370010D01*
X130300000Y-128175000D02*
X130300000Y-128800000D01*
X112432500Y-130120000D02*
X111925000Y-129612500D01*
X117400000Y-130120000D02*
X112432500Y-130120000D01*
X76250000Y-134600000D02*
X103000000Y-134600000D01*
X107987500Y-129612500D02*
X111925000Y-129612500D01*
X103000000Y-134600000D02*
X107987500Y-129612500D01*
X74175000Y-93690000D02*
X74175000Y-132525000D01*
X74175000Y-132525000D02*
X76250000Y-134600000D01*
X89415000Y-78450000D02*
X83850000Y-84015000D01*
X95775000Y-78450000D02*
X89415000Y-78450000D01*
X83850000Y-84015000D02*
X83850000Y-90200000D01*
X80360000Y-93690000D02*
X74175000Y-93690000D01*
X83850000Y-90200000D02*
X80360000Y-93690000D01*
X54610000Y-46355000D02*
X49530000Y-46355000D01*
X58460000Y-43805000D02*
X57160000Y-43805000D01*
X57160000Y-43805000D02*
X54610000Y-46355000D01*
X49530000Y-46355000D02*
X41910000Y-46355000D01*
X41910000Y-46355000D02*
X41275000Y-46990000D01*
X41275000Y-46990000D02*
X41275000Y-71120000D01*
X41275000Y-71120000D02*
X43815000Y-73660000D01*
X43815000Y-74862081D02*
X43815000Y-73660000D01*
X43815000Y-89352202D02*
X43815000Y-74862081D01*
X46676399Y-92213601D02*
X43815000Y-89352202D01*
X54206399Y-92213601D02*
X46676399Y-92213601D01*
X55520000Y-90900000D02*
X54206399Y-92213601D01*
X130300000Y-125375000D02*
X130300000Y-121700000D01*
X130300000Y-121700000D02*
X127100000Y-118500000D01*
X120950000Y-117300000D02*
X117550000Y-117300000D01*
X70260000Y-119560000D02*
X70200000Y-119500000D01*
X70260000Y-127500000D02*
X70260000Y-119560000D01*
X67660000Y-127440000D02*
X67720000Y-127500000D01*
X67660000Y-119500000D02*
X67660000Y-127440000D01*
X65180000Y-119560000D02*
X65120000Y-119500000D01*
X65180000Y-127500000D02*
X65180000Y-119560000D01*
X62580000Y-127440000D02*
X62640000Y-127500000D01*
X62580000Y-119500000D02*
X62580000Y-127440000D01*
X60100000Y-119560000D02*
X60040000Y-119500000D01*
X60100000Y-127500000D02*
X60100000Y-119560000D01*
X57500000Y-127440000D02*
X57560000Y-127500000D01*
X57500000Y-119500000D02*
X57500000Y-127440000D01*
X55020000Y-119560000D02*
X54960000Y-119500000D01*
X55020000Y-127500000D02*
X55020000Y-119560000D01*
X52420000Y-127440000D02*
X52480000Y-127500000D01*
X52420000Y-119500000D02*
X52420000Y-127440000D01*
X49940000Y-119560000D02*
X49880000Y-119500000D01*
X49940000Y-127500000D02*
X49940000Y-119560000D01*
X47340000Y-127440000D02*
X47400000Y-127500000D01*
X47340000Y-119500000D02*
X47340000Y-127440000D01*
D24*
X55450000Y-94688600D02*
X56700000Y-95938600D01*
X56700000Y-95938600D02*
X65838600Y-95938600D01*
X65838600Y-95938600D02*
X69100000Y-99200000D01*
X69100000Y-99200000D02*
X69200000Y-99200000D01*
X123350000Y-111000000D02*
X123400000Y-111050000D01*
X104300000Y-111000000D02*
X123350000Y-111000000D01*
X122350000Y-111050000D02*
X114750000Y-118650000D01*
X123400000Y-111050000D02*
X122350000Y-111050000D01*
X115950000Y-127580000D02*
X117400000Y-127580000D01*
X114750000Y-126380000D02*
X115950000Y-127580000D01*
X114750000Y-118650000D02*
X114750000Y-126380000D01*
D25*
X61000000Y-38725000D02*
X61000000Y-41265000D01*
X61000000Y-41265000D02*
X61000000Y-43805000D01*
X49530000Y-36485010D02*
X49530000Y-38735000D01*
X50165000Y-35850010D02*
X49530000Y-36485010D01*
X59475010Y-35850010D02*
X50165000Y-35850010D01*
X61000000Y-38725000D02*
X61000000Y-37375000D01*
X61000000Y-37375000D02*
X59475010Y-35850010D01*
X70200000Y-110650000D02*
X70150000Y-110600000D01*
X70200000Y-116960000D02*
X70200000Y-110650000D01*
X70150000Y-105500000D02*
X70150000Y-110600000D01*
X67610000Y-116910000D02*
X67660000Y-116960000D01*
X67610000Y-105500000D02*
X67610000Y-116910000D01*
X67610000Y-109397919D02*
X67610000Y-105500000D01*
X67610000Y-110600000D02*
X67610000Y-109397919D01*
X65070000Y-116910000D02*
X65120000Y-116960000D01*
X65070000Y-105500000D02*
X65070000Y-116910000D01*
X62530000Y-116910000D02*
X62580000Y-116960000D01*
X62530000Y-105500000D02*
X62530000Y-116910000D01*
X59990000Y-116910000D02*
X60040000Y-116960000D01*
X59990000Y-105500000D02*
X59990000Y-116910000D01*
X57450000Y-116910000D02*
X57500000Y-116960000D01*
X57450000Y-105500000D02*
X57450000Y-116910000D01*
X54910000Y-116910000D02*
X54960000Y-116960000D01*
X54910000Y-105500000D02*
X54910000Y-116910000D01*
X52370000Y-116910000D02*
X52420000Y-116960000D01*
X52370000Y-105500000D02*
X52370000Y-116910000D01*
X49830000Y-116910000D02*
X49880000Y-116960000D01*
X49830000Y-105500000D02*
X49830000Y-116910000D01*
X47290000Y-105500000D02*
X47290000Y-110600000D01*
X47290000Y-116910000D02*
X47340000Y-116960000D01*
X47290000Y-110600000D02*
X47290000Y-116910000D01*
D24*
X117250000Y-61500000D02*
X116000000Y-62750000D01*
X116000000Y-62750000D02*
X105450000Y-62750000D01*
X60955000Y-71700000D02*
X58460000Y-69205000D01*
X90150000Y-71700000D02*
X60955000Y-71700000D01*
X110474999Y-52874999D02*
X105500000Y-57849998D01*
X126255000Y-54000000D02*
X125129999Y-52874999D01*
X105500000Y-57849998D02*
X105500000Y-58050000D01*
X125129999Y-52874999D02*
X110474999Y-52874999D01*
X90650000Y-55000000D02*
X87450000Y-51800000D01*
X87450000Y-51800000D02*
X74000000Y-51800000D01*
X74000000Y-51800000D02*
X72750000Y-53050000D01*
X72750000Y-53050000D02*
X72750000Y-55950000D01*
X59309999Y-65815001D02*
X58460000Y-66665000D01*
X59635001Y-63750997D02*
X59635001Y-65489999D01*
X60435999Y-62949999D02*
X59635001Y-63750997D01*
X68200001Y-62949999D02*
X60435999Y-62949999D01*
X59635001Y-65489999D02*
X59309999Y-65815001D01*
X72000000Y-59150000D02*
X68200001Y-62949999D01*
X61400000Y-75700000D02*
X62300000Y-76600000D01*
X62300000Y-76600000D02*
X84100000Y-76600000D01*
X110215001Y-86220001D02*
X111015000Y-87020000D01*
X108700001Y-84705001D02*
X110215001Y-86220001D01*
X88955001Y-84705001D02*
X108700001Y-84705001D01*
X87800000Y-83550000D02*
X88955001Y-84705001D01*
X73449991Y-59986401D02*
X81303591Y-67840001D01*
X81303591Y-67840001D02*
X99390001Y-67840001D01*
X73449990Y-58522992D02*
X73449991Y-59986401D01*
X99390001Y-67840001D02*
X103900000Y-72350000D01*
X59635001Y-55140001D02*
X65817593Y-55140001D01*
X58460000Y-53965000D02*
X59635001Y-55140001D01*
X65817593Y-55140001D02*
X68925593Y-58248001D01*
X68925593Y-58248001D02*
X73174999Y-58248001D01*
X73174999Y-58248001D02*
X73449990Y-58522992D01*
X105875000Y-76800000D02*
X111015000Y-81940000D01*
X104650000Y-76800000D02*
X105875000Y-76800000D01*
X59635001Y-50249999D02*
X59309999Y-50575001D01*
X68414003Y-57100001D02*
X61564001Y-50249999D01*
X61564001Y-50249999D02*
X59635001Y-50249999D01*
X88950001Y-57100001D02*
X68414003Y-57100001D01*
X59309999Y-50575001D02*
X58460000Y-51425000D01*
X89350000Y-57500000D02*
X88950001Y-57100001D01*
X59824999Y-47520001D02*
X59309999Y-48035001D01*
X59309999Y-48035001D02*
X58460000Y-48885000D01*
X66270001Y-47520001D02*
X59824999Y-47520001D01*
X66550000Y-47800000D02*
X66270001Y-47520001D01*
X50625001Y-41275000D02*
X49530000Y-41275000D01*
X52705000Y-43354999D02*
X50625001Y-41275000D01*
X52980000Y-88360000D02*
X54228541Y-89608541D01*
X54228541Y-89608541D02*
X68891459Y-89608541D01*
X90300000Y-70600000D02*
X88050000Y-70600000D01*
X89330000Y-83530000D02*
X95775000Y-83530000D01*
X88000000Y-82200000D02*
X89330000Y-83530000D01*
X79230000Y-86070000D02*
X74175000Y-86070000D01*
X85550000Y-79750000D02*
X79230000Y-86070000D01*
X118850000Y-125040000D02*
X117400000Y-125040000D01*
X127380001Y-116509999D02*
X118850000Y-125040000D01*
X127380001Y-83065001D02*
X127380001Y-116509999D01*
X126255000Y-81940000D02*
X127380001Y-83065001D01*
X80765000Y-66665000D02*
X73900000Y-59800000D01*
X73900000Y-59800000D02*
X73900000Y-57900000D01*
X74487500Y-56150000D02*
X75737500Y-54900000D01*
X73900000Y-56150000D02*
X74487500Y-56150000D01*
X95250000Y-70975000D02*
X95250000Y-72250000D01*
X95250000Y-72250000D02*
X91150000Y-76350000D01*
X117234999Y-83065001D02*
X118050000Y-82250000D01*
X110474999Y-83065001D02*
X117234999Y-83065001D01*
X95775000Y-80990000D02*
X108399998Y-80990000D01*
X108399998Y-80990000D02*
X110474999Y-83065001D01*
X74175000Y-80990000D02*
X72290000Y-80990000D01*
X72290000Y-80990000D02*
X68650000Y-77350000D01*
X71650000Y-68600000D02*
X83915001Y-68600000D01*
X83915001Y-68600000D02*
X83950000Y-68565001D01*
X94025000Y-66665000D02*
X85515000Y-66665000D01*
X85515000Y-66665000D02*
X80765000Y-66665000D01*
X95775000Y-86070000D02*
X89530000Y-86070000D01*
X89530000Y-86070000D02*
X82300000Y-93300000D01*
X99550000Y-74250000D02*
X99550000Y-69500000D01*
X99550000Y-69500000D02*
X99450000Y-69400000D01*
X95389999Y-62949999D02*
X94874999Y-62434999D01*
X100049999Y-62949999D02*
X95389999Y-62949999D01*
X94874999Y-62434999D02*
X94025000Y-61585000D01*
X100677653Y-63577653D02*
X100049999Y-62949999D01*
X96000999Y-55329999D02*
X100779999Y-55329999D01*
X95389999Y-55940999D02*
X96000999Y-55329999D01*
X95389999Y-58480999D02*
X95389999Y-55940999D01*
X94025000Y-59045000D02*
X94825998Y-59045000D01*
X94825998Y-59045000D02*
X95389999Y-58480999D01*
X100779999Y-55329999D02*
X102400000Y-56950000D01*
X102400000Y-56950000D02*
X102400000Y-58750000D01*
X128900000Y-62599998D02*
X128900000Y-83250000D01*
X126795001Y-60494999D02*
X128900000Y-62599998D01*
X115050000Y-55250000D02*
X120294999Y-60494999D01*
X120294999Y-60494999D02*
X126795001Y-60494999D01*
D25*
X114950000Y-75076370D02*
X119150000Y-79276370D01*
X114950000Y-73945000D02*
X114950000Y-75076370D01*
X119150000Y-91585000D02*
X111015000Y-99720000D01*
X119150000Y-79276370D02*
X119150000Y-91585000D01*
D24*
X111015000Y-89560000D02*
X98975000Y-101600000D01*
X98975000Y-101600000D02*
X81450000Y-101600000D01*
X81450000Y-101600000D02*
X76950000Y-97100000D01*
X62495000Y-58000000D02*
X61000000Y-56505000D01*
X65700000Y-58000000D02*
X62495000Y-58000000D01*
X57065001Y-57869999D02*
X44664999Y-70270001D01*
X59635001Y-57869999D02*
X57065001Y-57869999D01*
X44664999Y-70270001D02*
X43815000Y-71120000D01*
X61000000Y-56505000D02*
X59635001Y-57869999D01*
X61000000Y-53965000D02*
X62699999Y-53965000D01*
X62699999Y-53965000D02*
X63150000Y-54415001D01*
X63200000Y-57100000D02*
X65997918Y-57100000D01*
X65997918Y-57100000D02*
X69511306Y-60613388D01*
X79850000Y-75100000D02*
X83900000Y-75100000D01*
X83900000Y-75100000D02*
X86300000Y-77500000D01*
X99024999Y-77274999D02*
X99050000Y-77300000D01*
X87325000Y-78847805D02*
X88897806Y-77274999D01*
X88897806Y-77274999D02*
X99024999Y-77274999D01*
X109235000Y-82700000D02*
X111015000Y-84480000D01*
X99850000Y-82700000D02*
X109235000Y-82700000D01*
X106394999Y-60205001D02*
X105300000Y-61300000D01*
X117200000Y-59100000D02*
X116094999Y-60205001D01*
X116094999Y-60205001D02*
X106394999Y-60205001D01*
X66679285Y-95213600D02*
X61086400Y-95213600D01*
X71900000Y-101000000D02*
X71900000Y-100434315D01*
X71900000Y-100434315D02*
X66679285Y-95213600D01*
X74175000Y-83530000D02*
X78155000Y-79550000D01*
X78155000Y-79550000D02*
X79150000Y-79550000D01*
X79900000Y-77500000D02*
X85000000Y-77500000D01*
X85000000Y-77500000D02*
X85100000Y-77400000D01*
X95715001Y-65815001D02*
X96565000Y-66665000D01*
X92255684Y-65489999D02*
X95389999Y-65489999D01*
X91965685Y-65200000D02*
X92255684Y-65489999D01*
X95389999Y-65489999D02*
X95715001Y-65815001D01*
X91400000Y-65200000D02*
X91965685Y-65200000D01*
X126255000Y-61620000D02*
X123174999Y-64700001D01*
X123174999Y-64700001D02*
X112140001Y-64700001D01*
X112140001Y-64700001D02*
X111555001Y-65285001D01*
X111555001Y-65285001D02*
X105864999Y-65285001D01*
X105864999Y-65285001D02*
X105150000Y-66000000D01*
X90150000Y-73200000D02*
X69150000Y-73200000D01*
X69150000Y-73200000D02*
X68950000Y-73000000D01*
X63535000Y-69200000D02*
X61000000Y-66665000D01*
X65700000Y-69200000D02*
X63535000Y-69200000D01*
D25*
X125719999Y-73030001D02*
X120600000Y-78150000D01*
X126855001Y-73030001D02*
X125719999Y-73030001D01*
X127505001Y-68639999D02*
X127505001Y-72380001D01*
X116200001Y-67614999D02*
X125279999Y-67614999D01*
X125654999Y-67989999D02*
X126855001Y-67989999D01*
X127505001Y-72380001D02*
X126855001Y-73030001D01*
X114950000Y-68865000D02*
X116200001Y-67614999D01*
X125279999Y-67614999D02*
X125654999Y-67989999D01*
X126855001Y-67989999D02*
X127505001Y-68639999D01*
D24*
X101402654Y-67902654D02*
X104900000Y-71400000D01*
X101402654Y-63229652D02*
X101402654Y-67902654D01*
X96565000Y-61585000D02*
X99758002Y-61585000D01*
X99758002Y-61585000D02*
X101402654Y-63229652D01*
X114400000Y-76200000D02*
X118100000Y-79900000D01*
X118100000Y-79900000D02*
X118100000Y-80250000D01*
X62175001Y-50060001D02*
X101060001Y-50060001D01*
X61000000Y-48885000D02*
X62175001Y-50060001D01*
X101060001Y-50060001D02*
X102800000Y-51800000D01*
X102800000Y-51800000D02*
X102800000Y-54900000D01*
X75275000Y-78450000D02*
X74175000Y-78450000D01*
X95764002Y-69205000D02*
X86519002Y-78450000D01*
X96565000Y-69205000D02*
X95764002Y-69205000D01*
X86519002Y-78450000D02*
X81950000Y-78450000D01*
X81950000Y-78450000D02*
X75275000Y-78450000D01*
X78850001Y-62949999D02*
X78750000Y-63050000D01*
X94589001Y-62949999D02*
X78850001Y-62949999D01*
X96565000Y-64125000D02*
X95764002Y-64125000D01*
X95764002Y-64125000D02*
X94589001Y-62949999D01*
X76400000Y-66050000D02*
X74750000Y-67700000D01*
X75485000Y-87300000D02*
X74175000Y-88610000D01*
X78350000Y-87300000D02*
X75485000Y-87300000D01*
X80800000Y-61400000D02*
X80800000Y-57900000D01*
X82800000Y-54900000D02*
X80412500Y-54900000D01*
X83300000Y-55400000D02*
X82800000Y-54900000D01*
D25*
X96565000Y-38725000D02*
X96565000Y-41265000D01*
M02*
