G04 #@! TF.GenerationSoftware,KiCad,Pcbnew,(5.1.5)-3*
G04 #@! TF.CreationDate,2021-05-04T12:01:10+03:00*
G04 #@! TF.ProjectId,NandoBoard,4e616e64-6f42-46f6-9172-642e6b696361,rev?*
G04 #@! TF.SameCoordinates,Original*
G04 #@! TF.FileFunction,Legend,Bot*
G04 #@! TF.FilePolarity,Positive*
%FSLAX46Y46*%
G04 Gerber Fmt 4.6, Leading zero omitted, Abs format (unit mm)*
G04 Created by KiCad (PCBNEW (5.1.5)-3) date 2021-05-04 12:01:10*
%MOMM*%
%LPD*%
G04 APERTURE LIST*
%ADD10C,0.450000*%
%ADD11C,0.375000*%
%ADD12C,0.250000*%
G04 APERTURE END LIST*
D10*
X104709523Y-103376190D02*
X104709523Y-103871428D01*
X103947619Y-103376190D02*
X103947619Y-103871428D01*
X103280952Y-103376190D02*
X102804761Y-105976190D01*
X102423809Y-104119047D01*
X102042857Y-105976190D01*
X101566666Y-103376190D01*
X100804761Y-105976190D02*
X100804761Y-104242857D01*
X100804761Y-103376190D02*
X100900000Y-103500000D01*
X100804761Y-103623809D01*
X100709523Y-103500000D01*
X100804761Y-103376190D01*
X100804761Y-103623809D01*
X100138095Y-104242857D02*
X99376190Y-104242857D01*
X99852380Y-103376190D02*
X99852380Y-105604761D01*
X99757142Y-105852380D01*
X99566666Y-105976190D01*
X99376190Y-105976190D01*
X98709523Y-105976190D02*
X98709523Y-103376190D01*
X97852380Y-105976190D02*
X97852380Y-104614285D01*
X97947619Y-104366666D01*
X98138095Y-104242857D01*
X98423809Y-104242857D01*
X98614285Y-104366666D01*
X98709523Y-104490476D01*
X96614285Y-105976190D02*
X96804761Y-105852380D01*
X96900000Y-105728571D01*
X96995238Y-105480952D01*
X96995238Y-104738095D01*
X96900000Y-104490476D01*
X96804761Y-104366666D01*
X96614285Y-104242857D01*
X96328571Y-104242857D01*
X96138095Y-104366666D01*
X96042857Y-104490476D01*
X95947619Y-104738095D01*
X95947619Y-105480952D01*
X96042857Y-105728571D01*
X96138095Y-105852380D01*
X96328571Y-105976190D01*
X96614285Y-105976190D01*
X94233333Y-104242857D02*
X94233333Y-105976190D01*
X95090476Y-104242857D02*
X95090476Y-105604761D01*
X94995238Y-105852380D01*
X94804761Y-105976190D01*
X94519047Y-105976190D01*
X94328571Y-105852380D01*
X94233333Y-105728571D01*
X93566666Y-104242857D02*
X92804761Y-104242857D01*
X93280952Y-103376190D02*
X93280952Y-105604761D01*
X93185714Y-105852380D01*
X92995238Y-105976190D01*
X92804761Y-105976190D01*
X90900000Y-103376190D02*
X89757142Y-103376190D01*
X90328571Y-105976190D02*
X90328571Y-103376190D01*
X89090476Y-105976190D02*
X89090476Y-104242857D01*
X89090476Y-104738095D02*
X88995238Y-104490476D01*
X88900000Y-104366666D01*
X88709523Y-104242857D01*
X88519047Y-104242857D01*
X86995238Y-105976190D02*
X86995238Y-104614285D01*
X87090476Y-104366666D01*
X87280952Y-104242857D01*
X87661904Y-104242857D01*
X87852380Y-104366666D01*
X86995238Y-105852380D02*
X87185714Y-105976190D01*
X87661904Y-105976190D01*
X87852380Y-105852380D01*
X87947619Y-105604761D01*
X87947619Y-105357142D01*
X87852380Y-105109523D01*
X87661904Y-104985714D01*
X87185714Y-104985714D01*
X86995238Y-104861904D01*
X86042857Y-105976190D02*
X86042857Y-104242857D01*
X86042857Y-103376190D02*
X86138095Y-103500000D01*
X86042857Y-103623809D01*
X85947619Y-103500000D01*
X86042857Y-103376190D01*
X86042857Y-103623809D01*
X85090476Y-104242857D02*
X85090476Y-105976190D01*
X85090476Y-104490476D02*
X84995238Y-104366666D01*
X84804761Y-104242857D01*
X84519047Y-104242857D01*
X84328571Y-104366666D01*
X84233333Y-104614285D01*
X84233333Y-105976190D01*
X83280952Y-105976190D02*
X83280952Y-104242857D01*
X83280952Y-103376190D02*
X83376190Y-103500000D01*
X83280952Y-103623809D01*
X83185714Y-103500000D01*
X83280952Y-103376190D01*
X83280952Y-103623809D01*
X82328571Y-104242857D02*
X82328571Y-105976190D01*
X82328571Y-104490476D02*
X82233333Y-104366666D01*
X82042857Y-104242857D01*
X81757142Y-104242857D01*
X81566666Y-104366666D01*
X81471428Y-104614285D01*
X81471428Y-105976190D01*
X79661904Y-104242857D02*
X79661904Y-106347619D01*
X79757142Y-106595238D01*
X79852380Y-106719047D01*
X80042857Y-106842857D01*
X80328571Y-106842857D01*
X80519047Y-106719047D01*
X79661904Y-105852380D02*
X79852380Y-105976190D01*
X80233333Y-105976190D01*
X80423809Y-105852380D01*
X80519047Y-105728571D01*
X80614285Y-105480952D01*
X80614285Y-104738095D01*
X80519047Y-104490476D01*
X80423809Y-104366666D01*
X80233333Y-104242857D01*
X79852380Y-104242857D01*
X79661904Y-104366666D01*
X78614285Y-105852380D02*
X78614285Y-105976190D01*
X78709523Y-106223809D01*
X78804761Y-106347619D01*
X108566666Y-108592857D02*
X107804761Y-108592857D01*
X108280952Y-107726190D02*
X108280952Y-109954761D01*
X108185714Y-110202380D01*
X107995238Y-110326190D01*
X107804761Y-110326190D01*
X107138095Y-110326190D02*
X107138095Y-107726190D01*
X106280952Y-110326190D02*
X106280952Y-108964285D01*
X106376190Y-108716666D01*
X106566666Y-108592857D01*
X106852380Y-108592857D01*
X107042857Y-108716666D01*
X107138095Y-108840476D01*
X104566666Y-110202380D02*
X104757142Y-110326190D01*
X105138095Y-110326190D01*
X105328571Y-110202380D01*
X105423809Y-109954761D01*
X105423809Y-108964285D01*
X105328571Y-108716666D01*
X105138095Y-108592857D01*
X104757142Y-108592857D01*
X104566666Y-108716666D01*
X104471428Y-108964285D01*
X104471428Y-109211904D01*
X105423809Y-109459523D01*
X103804761Y-108592857D02*
X103328571Y-110326190D01*
X102852380Y-108592857D02*
X103328571Y-110326190D01*
X103519047Y-110945238D01*
X103614285Y-111069047D01*
X103804761Y-111192857D01*
X100280952Y-110326190D02*
X100471428Y-110202380D01*
X100566666Y-109954761D01*
X100566666Y-107726190D01*
X98661904Y-110326190D02*
X98661904Y-108964285D01*
X98757142Y-108716666D01*
X98947619Y-108592857D01*
X99328571Y-108592857D01*
X99519047Y-108716666D01*
X98661904Y-110202380D02*
X98852380Y-110326190D01*
X99328571Y-110326190D01*
X99519047Y-110202380D01*
X99614285Y-109954761D01*
X99614285Y-109707142D01*
X99519047Y-109459523D01*
X99328571Y-109335714D01*
X98852380Y-109335714D01*
X98661904Y-109211904D01*
X96852380Y-110202380D02*
X97042857Y-110326190D01*
X97423809Y-110326190D01*
X97614285Y-110202380D01*
X97709523Y-110078571D01*
X97804761Y-109830952D01*
X97804761Y-109088095D01*
X97709523Y-108840476D01*
X97614285Y-108716666D01*
X97423809Y-108592857D01*
X97042857Y-108592857D01*
X96852380Y-108716666D01*
X95995238Y-110326190D02*
X95995238Y-107726190D01*
X95804761Y-109335714D02*
X95233333Y-110326190D01*
X95233333Y-108592857D02*
X95995238Y-109583333D01*
X93614285Y-110202380D02*
X93804761Y-110326190D01*
X94185714Y-110326190D01*
X94376190Y-110202380D01*
X94471428Y-109954761D01*
X94471428Y-108964285D01*
X94376190Y-108716666D01*
X94185714Y-108592857D01*
X93804761Y-108592857D01*
X93614285Y-108716666D01*
X93519047Y-108964285D01*
X93519047Y-109211904D01*
X94471428Y-109459523D01*
X91804761Y-110326190D02*
X91804761Y-107726190D01*
X91804761Y-110202380D02*
X91995238Y-110326190D01*
X92376190Y-110326190D01*
X92566666Y-110202380D01*
X92661904Y-110078571D01*
X92757142Y-109830952D01*
X92757142Y-109088095D01*
X92661904Y-108840476D01*
X92566666Y-108716666D01*
X92376190Y-108592857D01*
X91995238Y-108592857D01*
X91804761Y-108716666D01*
X89328571Y-110326190D02*
X89328571Y-107726190D01*
X88185714Y-110326190D02*
X89042857Y-108840476D01*
X88185714Y-107726190D02*
X89328571Y-109211904D01*
X87328571Y-108592857D02*
X87328571Y-110326190D01*
X87328571Y-108840476D02*
X87233333Y-108716666D01*
X87042857Y-108592857D01*
X86757142Y-108592857D01*
X86566666Y-108716666D01*
X86471428Y-108964285D01*
X86471428Y-110326190D01*
X85233333Y-110326190D02*
X85423809Y-110202380D01*
X85519047Y-110078571D01*
X85614285Y-109830952D01*
X85614285Y-109088095D01*
X85519047Y-108840476D01*
X85423809Y-108716666D01*
X85233333Y-108592857D01*
X84947619Y-108592857D01*
X84757142Y-108716666D01*
X84661904Y-108840476D01*
X84566666Y-109088095D01*
X84566666Y-109830952D01*
X84661904Y-110078571D01*
X84757142Y-110202380D01*
X84947619Y-110326190D01*
X85233333Y-110326190D01*
X83900000Y-108592857D02*
X83519047Y-110326190D01*
X83138095Y-109088095D01*
X82757142Y-110326190D01*
X82376190Y-108592857D01*
X81328571Y-110326190D02*
X81519047Y-110202380D01*
X81614285Y-109954761D01*
X81614285Y-107726190D01*
X79804761Y-110202380D02*
X79995238Y-110326190D01*
X80376190Y-110326190D01*
X80566666Y-110202380D01*
X80661904Y-109954761D01*
X80661904Y-108964285D01*
X80566666Y-108716666D01*
X80376190Y-108592857D01*
X79995238Y-108592857D01*
X79804761Y-108716666D01*
X79709523Y-108964285D01*
X79709523Y-109211904D01*
X80661904Y-109459523D01*
X77995238Y-110326190D02*
X77995238Y-107726190D01*
X77995238Y-110202380D02*
X78185714Y-110326190D01*
X78566666Y-110326190D01*
X78757142Y-110202380D01*
X78852380Y-110078571D01*
X78947619Y-109830952D01*
X78947619Y-109088095D01*
X78852380Y-108840476D01*
X78757142Y-108716666D01*
X78566666Y-108592857D01*
X78185714Y-108592857D01*
X77995238Y-108716666D01*
X76185714Y-108592857D02*
X76185714Y-110697619D01*
X76280952Y-110945238D01*
X76376190Y-111069047D01*
X76566666Y-111192857D01*
X76852380Y-111192857D01*
X77042857Y-111069047D01*
X76185714Y-110202380D02*
X76376190Y-110326190D01*
X76757142Y-110326190D01*
X76947619Y-110202380D01*
X77042857Y-110078571D01*
X77138095Y-109830952D01*
X77138095Y-109088095D01*
X77042857Y-108840476D01*
X76947619Y-108716666D01*
X76757142Y-108592857D01*
X76376190Y-108592857D01*
X76185714Y-108716666D01*
X74471428Y-110202380D02*
X74661904Y-110326190D01*
X75042857Y-110326190D01*
X75233333Y-110202380D01*
X75328571Y-109954761D01*
X75328571Y-108964285D01*
X75233333Y-108716666D01*
X75042857Y-108592857D01*
X74661904Y-108592857D01*
X74471428Y-108716666D01*
X74376190Y-108964285D01*
X74376190Y-109211904D01*
X75328571Y-109459523D01*
X73519047Y-110078571D02*
X73423809Y-110202380D01*
X73519047Y-110326190D01*
X73614285Y-110202380D01*
X73519047Y-110078571D01*
X73519047Y-110326190D01*
X105995238Y-112076190D02*
X105519047Y-114676190D01*
X105138095Y-112819047D01*
X104757142Y-114676190D01*
X104280952Y-112076190D01*
X103519047Y-114676190D02*
X103519047Y-112942857D01*
X103519047Y-112076190D02*
X103614285Y-112200000D01*
X103519047Y-112323809D01*
X103423809Y-112200000D01*
X103519047Y-112076190D01*
X103519047Y-112323809D01*
X102852380Y-112942857D02*
X102090476Y-112942857D01*
X102566666Y-112076190D02*
X102566666Y-114304761D01*
X102471428Y-114552380D01*
X102280952Y-114676190D01*
X102090476Y-114676190D01*
X101423809Y-114676190D02*
X101423809Y-112076190D01*
X100566666Y-114676190D02*
X100566666Y-113314285D01*
X100661904Y-113066666D01*
X100852380Y-112942857D01*
X101138095Y-112942857D01*
X101328571Y-113066666D01*
X101423809Y-113190476D01*
X99328571Y-114676190D02*
X99519047Y-114552380D01*
X99614285Y-114428571D01*
X99709523Y-114180952D01*
X99709523Y-113438095D01*
X99614285Y-113190476D01*
X99519047Y-113066666D01*
X99328571Y-112942857D01*
X99042857Y-112942857D01*
X98852380Y-113066666D01*
X98757142Y-113190476D01*
X98661904Y-113438095D01*
X98661904Y-114180952D01*
X98757142Y-114428571D01*
X98852380Y-114552380D01*
X99042857Y-114676190D01*
X99328571Y-114676190D01*
X96947619Y-112942857D02*
X96947619Y-114676190D01*
X97804761Y-112942857D02*
X97804761Y-114304761D01*
X97709523Y-114552380D01*
X97519047Y-114676190D01*
X97233333Y-114676190D01*
X97042857Y-114552380D01*
X96947619Y-114428571D01*
X96280952Y-112942857D02*
X95519047Y-112942857D01*
X95995238Y-112076190D02*
X95995238Y-114304761D01*
X95900000Y-114552380D01*
X95709523Y-114676190D01*
X95519047Y-114676190D01*
X93328571Y-114676190D02*
X93328571Y-112076190D01*
X92185714Y-114676190D02*
X93042857Y-113190476D01*
X92185714Y-112076190D02*
X93328571Y-113561904D01*
X91328571Y-112942857D02*
X91328571Y-114676190D01*
X91328571Y-113190476D02*
X91233333Y-113066666D01*
X91042857Y-112942857D01*
X90757142Y-112942857D01*
X90566666Y-113066666D01*
X90471428Y-113314285D01*
X90471428Y-114676190D01*
X89233333Y-114676190D02*
X89423809Y-114552380D01*
X89519047Y-114428571D01*
X89614285Y-114180952D01*
X89614285Y-113438095D01*
X89519047Y-113190476D01*
X89423809Y-113066666D01*
X89233333Y-112942857D01*
X88947619Y-112942857D01*
X88757142Y-113066666D01*
X88661904Y-113190476D01*
X88566666Y-113438095D01*
X88566666Y-114180952D01*
X88661904Y-114428571D01*
X88757142Y-114552380D01*
X88947619Y-114676190D01*
X89233333Y-114676190D01*
X87900000Y-112942857D02*
X87519047Y-114676190D01*
X87138095Y-113438095D01*
X86757142Y-114676190D01*
X86376190Y-112942857D01*
X85328571Y-114676190D02*
X85519047Y-114552380D01*
X85614285Y-114304761D01*
X85614285Y-112076190D01*
X83804761Y-114552380D02*
X83995238Y-114676190D01*
X84376190Y-114676190D01*
X84566666Y-114552380D01*
X84661904Y-114304761D01*
X84661904Y-113314285D01*
X84566666Y-113066666D01*
X84376190Y-112942857D01*
X83995238Y-112942857D01*
X83804761Y-113066666D01*
X83709523Y-113314285D01*
X83709523Y-113561904D01*
X84661904Y-113809523D01*
X81995238Y-114676190D02*
X81995238Y-112076190D01*
X81995238Y-114552380D02*
X82185714Y-114676190D01*
X82566666Y-114676190D01*
X82757142Y-114552380D01*
X82852380Y-114428571D01*
X82947619Y-114180952D01*
X82947619Y-113438095D01*
X82852380Y-113190476D01*
X82757142Y-113066666D01*
X82566666Y-112942857D01*
X82185714Y-112942857D01*
X81995238Y-113066666D01*
X80185714Y-112942857D02*
X80185714Y-115047619D01*
X80280952Y-115295238D01*
X80376190Y-115419047D01*
X80566666Y-115542857D01*
X80852380Y-115542857D01*
X81042857Y-115419047D01*
X80185714Y-114552380D02*
X80376190Y-114676190D01*
X80757142Y-114676190D01*
X80947619Y-114552380D01*
X81042857Y-114428571D01*
X81138095Y-114180952D01*
X81138095Y-113438095D01*
X81042857Y-113190476D01*
X80947619Y-113066666D01*
X80757142Y-112942857D01*
X80376190Y-112942857D01*
X80185714Y-113066666D01*
X78471428Y-114552380D02*
X78661904Y-114676190D01*
X79042857Y-114676190D01*
X79233333Y-114552380D01*
X79328571Y-114304761D01*
X79328571Y-113314285D01*
X79233333Y-113066666D01*
X79042857Y-112942857D01*
X78661904Y-112942857D01*
X78471428Y-113066666D01*
X78376190Y-113314285D01*
X78376190Y-113561904D01*
X79328571Y-113809523D01*
X77423809Y-114552380D02*
X77423809Y-114676190D01*
X77519047Y-114923809D01*
X77614285Y-115047619D01*
X108900000Y-117292857D02*
X108138095Y-117292857D01*
X108614285Y-116426190D02*
X108614285Y-118654761D01*
X108519047Y-118902380D01*
X108328571Y-119026190D01*
X108138095Y-119026190D01*
X107471428Y-119026190D02*
X107471428Y-116426190D01*
X106614285Y-119026190D02*
X106614285Y-117664285D01*
X106709523Y-117416666D01*
X106900000Y-117292857D01*
X107185714Y-117292857D01*
X107376190Y-117416666D01*
X107471428Y-117540476D01*
X104900000Y-118902380D02*
X105090476Y-119026190D01*
X105471428Y-119026190D01*
X105661904Y-118902380D01*
X105757142Y-118654761D01*
X105757142Y-117664285D01*
X105661904Y-117416666D01*
X105471428Y-117292857D01*
X105090476Y-117292857D01*
X104900000Y-117416666D01*
X104804761Y-117664285D01*
X104804761Y-117911904D01*
X105757142Y-118159523D01*
X104138095Y-117292857D02*
X103661904Y-119026190D01*
X103185714Y-117292857D02*
X103661904Y-119026190D01*
X103852380Y-119645238D01*
X103947619Y-119769047D01*
X104138095Y-119892857D01*
X100614285Y-119026190D02*
X100804761Y-118902380D01*
X100900000Y-118654761D01*
X100900000Y-116426190D01*
X98995238Y-119026190D02*
X98995238Y-117664285D01*
X99090476Y-117416666D01*
X99280952Y-117292857D01*
X99661904Y-117292857D01*
X99852380Y-117416666D01*
X98995238Y-118902380D02*
X99185714Y-119026190D01*
X99661904Y-119026190D01*
X99852380Y-118902380D01*
X99947619Y-118654761D01*
X99947619Y-118407142D01*
X99852380Y-118159523D01*
X99661904Y-118035714D01*
X99185714Y-118035714D01*
X98995238Y-117911904D01*
X97185714Y-118902380D02*
X97376190Y-119026190D01*
X97757142Y-119026190D01*
X97947619Y-118902380D01*
X98042857Y-118778571D01*
X98138095Y-118530952D01*
X98138095Y-117788095D01*
X98042857Y-117540476D01*
X97947619Y-117416666D01*
X97757142Y-117292857D01*
X97376190Y-117292857D01*
X97185714Y-117416666D01*
X96328571Y-119026190D02*
X96328571Y-116426190D01*
X96138095Y-118035714D02*
X95566666Y-119026190D01*
X95566666Y-117292857D02*
X96328571Y-118283333D01*
X93947619Y-118902380D02*
X94138095Y-119026190D01*
X94519047Y-119026190D01*
X94709523Y-118902380D01*
X94804761Y-118654761D01*
X94804761Y-117664285D01*
X94709523Y-117416666D01*
X94519047Y-117292857D01*
X94138095Y-117292857D01*
X93947619Y-117416666D01*
X93852380Y-117664285D01*
X93852380Y-117911904D01*
X94804761Y-118159523D01*
X92138095Y-119026190D02*
X92138095Y-116426190D01*
X92138095Y-118902380D02*
X92328571Y-119026190D01*
X92709523Y-119026190D01*
X92900000Y-118902380D01*
X92995238Y-118778571D01*
X93090476Y-118530952D01*
X93090476Y-117788095D01*
X92995238Y-117540476D01*
X92900000Y-117416666D01*
X92709523Y-117292857D01*
X92328571Y-117292857D01*
X92138095Y-117416666D01*
X88519047Y-118778571D02*
X88614285Y-118902380D01*
X88900000Y-119026190D01*
X89090476Y-119026190D01*
X89376190Y-118902380D01*
X89566666Y-118654761D01*
X89661904Y-118407142D01*
X89757142Y-117911904D01*
X89757142Y-117540476D01*
X89661904Y-117045238D01*
X89566666Y-116797619D01*
X89376190Y-116550000D01*
X89090476Y-116426190D01*
X88900000Y-116426190D01*
X88614285Y-116550000D01*
X88519047Y-116673809D01*
X87376190Y-119026190D02*
X87566666Y-118902380D01*
X87661904Y-118778571D01*
X87757142Y-118530952D01*
X87757142Y-117788095D01*
X87661904Y-117540476D01*
X87566666Y-117416666D01*
X87376190Y-117292857D01*
X87090476Y-117292857D01*
X86900000Y-117416666D01*
X86804761Y-117540476D01*
X86709523Y-117788095D01*
X86709523Y-118530952D01*
X86804761Y-118778571D01*
X86900000Y-118902380D01*
X87090476Y-119026190D01*
X87376190Y-119026190D01*
X85852380Y-117292857D02*
X85852380Y-119026190D01*
X85852380Y-117540476D02*
X85757142Y-117416666D01*
X85566666Y-117292857D01*
X85280952Y-117292857D01*
X85090476Y-117416666D01*
X84995238Y-117664285D01*
X84995238Y-119026190D01*
X84328571Y-117292857D02*
X83566666Y-117292857D01*
X84042857Y-119026190D02*
X84042857Y-116797619D01*
X83947619Y-116550000D01*
X83757142Y-116426190D01*
X83566666Y-116426190D01*
X82900000Y-119026190D02*
X82900000Y-117292857D01*
X82900000Y-116426190D02*
X82995238Y-116550000D01*
X82900000Y-116673809D01*
X82804761Y-116550000D01*
X82900000Y-116426190D01*
X82900000Y-116673809D01*
X81090476Y-119026190D02*
X81090476Y-116426190D01*
X81090476Y-118902380D02*
X81280952Y-119026190D01*
X81661904Y-119026190D01*
X81852380Y-118902380D01*
X81947619Y-118778571D01*
X82042857Y-118530952D01*
X82042857Y-117788095D01*
X81947619Y-117540476D01*
X81852380Y-117416666D01*
X81661904Y-117292857D01*
X81280952Y-117292857D01*
X81090476Y-117416666D01*
X79376190Y-118902380D02*
X79566666Y-119026190D01*
X79947619Y-119026190D01*
X80138095Y-118902380D01*
X80233333Y-118654761D01*
X80233333Y-117664285D01*
X80138095Y-117416666D01*
X79947619Y-117292857D01*
X79566666Y-117292857D01*
X79376190Y-117416666D01*
X79280952Y-117664285D01*
X79280952Y-117911904D01*
X80233333Y-118159523D01*
X78423809Y-117292857D02*
X78423809Y-119026190D01*
X78423809Y-117540476D02*
X78328571Y-117416666D01*
X78138095Y-117292857D01*
X77852380Y-117292857D01*
X77661904Y-117416666D01*
X77566666Y-117664285D01*
X77566666Y-119026190D01*
X75757142Y-118902380D02*
X75947619Y-119026190D01*
X76328571Y-119026190D01*
X76519047Y-118902380D01*
X76614285Y-118778571D01*
X76709523Y-118530952D01*
X76709523Y-117788095D01*
X76614285Y-117540476D01*
X76519047Y-117416666D01*
X76328571Y-117292857D01*
X75947619Y-117292857D01*
X75757142Y-117416666D01*
X74138095Y-118902380D02*
X74328571Y-119026190D01*
X74709523Y-119026190D01*
X74900000Y-118902380D01*
X74995238Y-118654761D01*
X74995238Y-117664285D01*
X74900000Y-117416666D01*
X74709523Y-117292857D01*
X74328571Y-117292857D01*
X74138095Y-117416666D01*
X74042857Y-117664285D01*
X74042857Y-117911904D01*
X74995238Y-118159523D01*
X73185714Y-118778571D02*
X73090476Y-118902380D01*
X73185714Y-119026190D01*
X73280952Y-118902380D01*
X73185714Y-118778571D01*
X73185714Y-119026190D01*
X106328571Y-120776190D02*
X105852380Y-123376190D01*
X105471428Y-121519047D01*
X105090476Y-123376190D01*
X104614285Y-120776190D01*
X103852380Y-123376190D02*
X103852380Y-121642857D01*
X103852380Y-120776190D02*
X103947619Y-120900000D01*
X103852380Y-121023809D01*
X103757142Y-120900000D01*
X103852380Y-120776190D01*
X103852380Y-121023809D01*
X103185714Y-121642857D02*
X102423809Y-121642857D01*
X102900000Y-120776190D02*
X102900000Y-123004761D01*
X102804761Y-123252380D01*
X102614285Y-123376190D01*
X102423809Y-123376190D01*
X101757142Y-123376190D02*
X101757142Y-120776190D01*
X100900000Y-123376190D02*
X100900000Y-122014285D01*
X100995238Y-121766666D01*
X101185714Y-121642857D01*
X101471428Y-121642857D01*
X101661904Y-121766666D01*
X101757142Y-121890476D01*
X99661904Y-123376190D02*
X99852380Y-123252380D01*
X99947619Y-123128571D01*
X100042857Y-122880952D01*
X100042857Y-122138095D01*
X99947619Y-121890476D01*
X99852380Y-121766666D01*
X99661904Y-121642857D01*
X99376190Y-121642857D01*
X99185714Y-121766666D01*
X99090476Y-121890476D01*
X98995238Y-122138095D01*
X98995238Y-122880952D01*
X99090476Y-123128571D01*
X99185714Y-123252380D01*
X99376190Y-123376190D01*
X99661904Y-123376190D01*
X97280952Y-121642857D02*
X97280952Y-123376190D01*
X98138095Y-121642857D02*
X98138095Y-123004761D01*
X98042857Y-123252380D01*
X97852380Y-123376190D01*
X97566666Y-123376190D01*
X97376190Y-123252380D01*
X97280952Y-123128571D01*
X96614285Y-121642857D02*
X95852380Y-121642857D01*
X96328571Y-120776190D02*
X96328571Y-123004761D01*
X96233333Y-123252380D01*
X96042857Y-123376190D01*
X95852380Y-123376190D01*
X92519047Y-123128571D02*
X92614285Y-123252380D01*
X92900000Y-123376190D01*
X93090476Y-123376190D01*
X93376190Y-123252380D01*
X93566666Y-123004761D01*
X93661904Y-122757142D01*
X93757142Y-122261904D01*
X93757142Y-121890476D01*
X93661904Y-121395238D01*
X93566666Y-121147619D01*
X93376190Y-120900000D01*
X93090476Y-120776190D01*
X92900000Y-120776190D01*
X92614285Y-120900000D01*
X92519047Y-121023809D01*
X91376190Y-123376190D02*
X91566666Y-123252380D01*
X91661904Y-123128571D01*
X91757142Y-122880952D01*
X91757142Y-122138095D01*
X91661904Y-121890476D01*
X91566666Y-121766666D01*
X91376190Y-121642857D01*
X91090476Y-121642857D01*
X90900000Y-121766666D01*
X90804761Y-121890476D01*
X90709523Y-122138095D01*
X90709523Y-122880952D01*
X90804761Y-123128571D01*
X90900000Y-123252380D01*
X91090476Y-123376190D01*
X91376190Y-123376190D01*
X89852380Y-121642857D02*
X89852380Y-123376190D01*
X89852380Y-121890476D02*
X89757142Y-121766666D01*
X89566666Y-121642857D01*
X89280952Y-121642857D01*
X89090476Y-121766666D01*
X88995238Y-122014285D01*
X88995238Y-123376190D01*
X88328571Y-121642857D02*
X87566666Y-121642857D01*
X88042857Y-123376190D02*
X88042857Y-121147619D01*
X87947619Y-120900000D01*
X87757142Y-120776190D01*
X87566666Y-120776190D01*
X86900000Y-123376190D02*
X86900000Y-121642857D01*
X86900000Y-120776190D02*
X86995238Y-120900000D01*
X86900000Y-121023809D01*
X86804761Y-120900000D01*
X86900000Y-120776190D01*
X86900000Y-121023809D01*
X85090476Y-123376190D02*
X85090476Y-120776190D01*
X85090476Y-123252380D02*
X85280952Y-123376190D01*
X85661904Y-123376190D01*
X85852380Y-123252380D01*
X85947619Y-123128571D01*
X86042857Y-122880952D01*
X86042857Y-122138095D01*
X85947619Y-121890476D01*
X85852380Y-121766666D01*
X85661904Y-121642857D01*
X85280952Y-121642857D01*
X85090476Y-121766666D01*
X83376190Y-123252380D02*
X83566666Y-123376190D01*
X83947619Y-123376190D01*
X84138095Y-123252380D01*
X84233333Y-123004761D01*
X84233333Y-122014285D01*
X84138095Y-121766666D01*
X83947619Y-121642857D01*
X83566666Y-121642857D01*
X83376190Y-121766666D01*
X83280952Y-122014285D01*
X83280952Y-122261904D01*
X84233333Y-122509523D01*
X82423809Y-121642857D02*
X82423809Y-123376190D01*
X82423809Y-121890476D02*
X82328571Y-121766666D01*
X82138095Y-121642857D01*
X81852380Y-121642857D01*
X81661904Y-121766666D01*
X81566666Y-122014285D01*
X81566666Y-123376190D01*
X79757142Y-123252380D02*
X79947619Y-123376190D01*
X80328571Y-123376190D01*
X80519047Y-123252380D01*
X80614285Y-123128571D01*
X80709523Y-122880952D01*
X80709523Y-122138095D01*
X80614285Y-121890476D01*
X80519047Y-121766666D01*
X80328571Y-121642857D01*
X79947619Y-121642857D01*
X79757142Y-121766666D01*
X78138095Y-123252380D02*
X78328571Y-123376190D01*
X78709523Y-123376190D01*
X78900000Y-123252380D01*
X78995238Y-123004761D01*
X78995238Y-122014285D01*
X78900000Y-121766666D01*
X78709523Y-121642857D01*
X78328571Y-121642857D01*
X78138095Y-121766666D01*
X78042857Y-122014285D01*
X78042857Y-122261904D01*
X78995238Y-122509523D01*
X77090476Y-123252380D02*
X77090476Y-123376190D01*
X77185714Y-123623809D01*
X77280952Y-123747619D01*
X106471428Y-125992857D02*
X105709523Y-125992857D01*
X106185714Y-125126190D02*
X106185714Y-127354761D01*
X106090476Y-127602380D01*
X105900000Y-127726190D01*
X105709523Y-127726190D01*
X105042857Y-127726190D02*
X105042857Y-125126190D01*
X104185714Y-127726190D02*
X104185714Y-126364285D01*
X104280952Y-126116666D01*
X104471428Y-125992857D01*
X104757142Y-125992857D01*
X104947619Y-126116666D01*
X105042857Y-126240476D01*
X102471428Y-127602380D02*
X102661904Y-127726190D01*
X103042857Y-127726190D01*
X103233333Y-127602380D01*
X103328571Y-127354761D01*
X103328571Y-126364285D01*
X103233333Y-126116666D01*
X103042857Y-125992857D01*
X102661904Y-125992857D01*
X102471428Y-126116666D01*
X102376190Y-126364285D01*
X102376190Y-126611904D01*
X103328571Y-126859523D01*
X101709523Y-125992857D02*
X101233333Y-127726190D01*
X100757142Y-125992857D02*
X101233333Y-127726190D01*
X101423809Y-128345238D01*
X101519047Y-128469047D01*
X101709523Y-128592857D01*
X98185714Y-127726190D02*
X98376190Y-127602380D01*
X98471428Y-127354761D01*
X98471428Y-125126190D01*
X96566666Y-127726190D02*
X96566666Y-126364285D01*
X96661904Y-126116666D01*
X96852380Y-125992857D01*
X97233333Y-125992857D01*
X97423809Y-126116666D01*
X96566666Y-127602380D02*
X96757142Y-127726190D01*
X97233333Y-127726190D01*
X97423809Y-127602380D01*
X97519047Y-127354761D01*
X97519047Y-127107142D01*
X97423809Y-126859523D01*
X97233333Y-126735714D01*
X96757142Y-126735714D01*
X96566666Y-126611904D01*
X94757142Y-127602380D02*
X94947619Y-127726190D01*
X95328571Y-127726190D01*
X95519047Y-127602380D01*
X95614285Y-127478571D01*
X95709523Y-127230952D01*
X95709523Y-126488095D01*
X95614285Y-126240476D01*
X95519047Y-126116666D01*
X95328571Y-125992857D01*
X94947619Y-125992857D01*
X94757142Y-126116666D01*
X93900000Y-127726190D02*
X93900000Y-125126190D01*
X93709523Y-126735714D02*
X93138095Y-127726190D01*
X93138095Y-125992857D02*
X93900000Y-126983333D01*
X91519047Y-127602380D02*
X91709523Y-127726190D01*
X92090476Y-127726190D01*
X92280952Y-127602380D01*
X92376190Y-127354761D01*
X92376190Y-126364285D01*
X92280952Y-126116666D01*
X92090476Y-125992857D01*
X91709523Y-125992857D01*
X91519047Y-126116666D01*
X91423809Y-126364285D01*
X91423809Y-126611904D01*
X92376190Y-126859523D01*
X89709523Y-127726190D02*
X89709523Y-125126190D01*
X89709523Y-127602380D02*
X89900000Y-127726190D01*
X90280952Y-127726190D01*
X90471428Y-127602380D01*
X90566666Y-127478571D01*
X90661904Y-127230952D01*
X90661904Y-126488095D01*
X90566666Y-126240476D01*
X90471428Y-126116666D01*
X90280952Y-125992857D01*
X89900000Y-125992857D01*
X89709523Y-126116666D01*
X87519047Y-125126190D02*
X86852380Y-127726190D01*
X86185714Y-125126190D01*
X85519047Y-127726190D02*
X85519047Y-125992857D01*
X85519047Y-125126190D02*
X85614285Y-125250000D01*
X85519047Y-125373809D01*
X85423809Y-125250000D01*
X85519047Y-125126190D01*
X85519047Y-125373809D01*
X83709523Y-127602380D02*
X83900000Y-127726190D01*
X84280952Y-127726190D01*
X84471428Y-127602380D01*
X84566666Y-127478571D01*
X84661904Y-127230952D01*
X84661904Y-126488095D01*
X84566666Y-126240476D01*
X84471428Y-126116666D01*
X84280952Y-125992857D01*
X83900000Y-125992857D01*
X83709523Y-126116666D01*
X83138095Y-125992857D02*
X82376190Y-125992857D01*
X82852380Y-125126190D02*
X82852380Y-127354761D01*
X82757142Y-127602380D01*
X82566666Y-127726190D01*
X82376190Y-127726190D01*
X81423809Y-127726190D02*
X81614285Y-127602380D01*
X81709523Y-127478571D01*
X81804761Y-127230952D01*
X81804761Y-126488095D01*
X81709523Y-126240476D01*
X81614285Y-126116666D01*
X81423809Y-125992857D01*
X81138095Y-125992857D01*
X80947619Y-126116666D01*
X80852380Y-126240476D01*
X80757142Y-126488095D01*
X80757142Y-127230952D01*
X80852380Y-127478571D01*
X80947619Y-127602380D01*
X81138095Y-127726190D01*
X81423809Y-127726190D01*
X79900000Y-127726190D02*
X79900000Y-125992857D01*
X79900000Y-126488095D02*
X79804761Y-126240476D01*
X79709523Y-126116666D01*
X79519047Y-125992857D01*
X79328571Y-125992857D01*
X78852380Y-125992857D02*
X78376190Y-127726190D01*
X77900000Y-125992857D02*
X78376190Y-127726190D01*
X78566666Y-128345238D01*
X78661904Y-128469047D01*
X78852380Y-128592857D01*
X77138095Y-127478571D02*
X77042857Y-127602380D01*
X77138095Y-127726190D01*
X77233333Y-127602380D01*
X77138095Y-127478571D01*
X77138095Y-127726190D01*
X76280952Y-125126190D02*
X76280952Y-125621428D01*
X75519047Y-125126190D02*
X75519047Y-125621428D01*
D11*
X97997857Y-130190476D02*
X97997857Y-131833333D01*
X98069285Y-132161904D01*
X98212142Y-132380952D01*
X98426428Y-132490476D01*
X98569285Y-132490476D01*
X96640714Y-130957142D02*
X96640714Y-132490476D01*
X97283571Y-130957142D02*
X97283571Y-132161904D01*
X97212142Y-132380952D01*
X97069285Y-132490476D01*
X96855000Y-132490476D01*
X96712142Y-132380952D01*
X96640714Y-132271428D01*
X95712142Y-132490476D02*
X95855000Y-132380952D01*
X95926428Y-132161904D01*
X95926428Y-130190476D01*
X95140714Y-132490476D02*
X95140714Y-130957142D01*
X95140714Y-130190476D02*
X95212142Y-130300000D01*
X95140714Y-130409523D01*
X95069285Y-130300000D01*
X95140714Y-130190476D01*
X95140714Y-130409523D01*
X93783571Y-130957142D02*
X93783571Y-132490476D01*
X94426428Y-130957142D02*
X94426428Y-132161904D01*
X94355000Y-132380952D01*
X94212142Y-132490476D01*
X93997857Y-132490476D01*
X93855000Y-132380952D01*
X93783571Y-132271428D01*
X93140714Y-132380952D02*
X92997857Y-132490476D01*
X92712142Y-132490476D01*
X92569285Y-132380952D01*
X92497857Y-132161904D01*
X92497857Y-132052380D01*
X92569285Y-131833333D01*
X92712142Y-131723809D01*
X92926428Y-131723809D01*
X93069285Y-131614285D01*
X93140714Y-131395238D01*
X93140714Y-131285714D01*
X93069285Y-131066666D01*
X92926428Y-130957142D01*
X92712142Y-130957142D01*
X92569285Y-131066666D01*
X89855000Y-132271428D02*
X89926428Y-132380952D01*
X90140714Y-132490476D01*
X90283571Y-132490476D01*
X90497857Y-132380952D01*
X90640714Y-132161904D01*
X90712142Y-131942857D01*
X90783571Y-131504761D01*
X90783571Y-131176190D01*
X90712142Y-130738095D01*
X90640714Y-130519047D01*
X90497857Y-130300000D01*
X90283571Y-130190476D01*
X90140714Y-130190476D01*
X89926428Y-130300000D01*
X89855000Y-130409523D01*
X88569285Y-132490476D02*
X88569285Y-131285714D01*
X88640714Y-131066666D01*
X88783571Y-130957142D01*
X89069285Y-130957142D01*
X89212142Y-131066666D01*
X88569285Y-132380952D02*
X88712142Y-132490476D01*
X89069285Y-132490476D01*
X89212142Y-132380952D01*
X89283571Y-132161904D01*
X89283571Y-131942857D01*
X89212142Y-131723809D01*
X89069285Y-131614285D01*
X88712142Y-131614285D01*
X88569285Y-131504761D01*
X87283571Y-132380952D02*
X87426428Y-132490476D01*
X87712142Y-132490476D01*
X87855000Y-132380952D01*
X87926428Y-132161904D01*
X87926428Y-131285714D01*
X87855000Y-131066666D01*
X87712142Y-130957142D01*
X87426428Y-130957142D01*
X87283571Y-131066666D01*
X87212142Y-131285714D01*
X87212142Y-131504761D01*
X87926428Y-131723809D01*
X86640714Y-132380952D02*
X86497857Y-132490476D01*
X86212142Y-132490476D01*
X86069285Y-132380952D01*
X85997857Y-132161904D01*
X85997857Y-132052380D01*
X86069285Y-131833333D01*
X86212142Y-131723809D01*
X86426428Y-131723809D01*
X86569285Y-131614285D01*
X86640714Y-131395238D01*
X86640714Y-131285714D01*
X86569285Y-131066666D01*
X86426428Y-130957142D01*
X86212142Y-130957142D01*
X86069285Y-131066666D01*
X84712142Y-132490476D02*
X84712142Y-131285714D01*
X84783571Y-131066666D01*
X84926428Y-130957142D01*
X85212142Y-130957142D01*
X85355000Y-131066666D01*
X84712142Y-132380952D02*
X84855000Y-132490476D01*
X85212142Y-132490476D01*
X85355000Y-132380952D01*
X85426428Y-132161904D01*
X85426428Y-131942857D01*
X85355000Y-131723809D01*
X85212142Y-131614285D01*
X84855000Y-131614285D01*
X84712142Y-131504761D01*
X83997857Y-132490476D02*
X83997857Y-130957142D01*
X83997857Y-131395238D02*
X83926428Y-131176190D01*
X83855000Y-131066666D01*
X83712142Y-130957142D01*
X83569285Y-130957142D01*
D12*
X73798333Y-75818571D02*
X74365000Y-75818571D01*
X74365000Y-76709047D02*
X74365000Y-75009047D01*
X73555476Y-75009047D01*
X72665000Y-76709047D02*
X72826904Y-76628095D01*
X72907857Y-76547142D01*
X72988809Y-76385238D01*
X72988809Y-75899523D01*
X72907857Y-75737619D01*
X72826904Y-75656666D01*
X72665000Y-75575714D01*
X72422142Y-75575714D01*
X72260238Y-75656666D01*
X72179285Y-75737619D01*
X72098333Y-75899523D01*
X72098333Y-76385238D01*
X72179285Y-76547142D01*
X72260238Y-76628095D01*
X72422142Y-76709047D01*
X72665000Y-76709047D01*
X71369761Y-76709047D02*
X71369761Y-75575714D01*
X71369761Y-75899523D02*
X71288809Y-75737619D01*
X71207857Y-75656666D01*
X71045952Y-75575714D01*
X70884047Y-75575714D01*
X69022142Y-76709047D02*
X69022142Y-75575714D01*
X69022142Y-75737619D02*
X68941190Y-75656666D01*
X68779285Y-75575714D01*
X68536428Y-75575714D01*
X68374523Y-75656666D01*
X68293571Y-75818571D01*
X68293571Y-76709047D01*
X68293571Y-75818571D02*
X68212619Y-75656666D01*
X68050714Y-75575714D01*
X67807857Y-75575714D01*
X67645952Y-75656666D01*
X67565000Y-75818571D01*
X67565000Y-76709047D01*
X66512619Y-76709047D02*
X66674523Y-76628095D01*
X66755476Y-76547142D01*
X66836428Y-76385238D01*
X66836428Y-75899523D01*
X66755476Y-75737619D01*
X66674523Y-75656666D01*
X66512619Y-75575714D01*
X66269761Y-75575714D01*
X66107857Y-75656666D01*
X66026904Y-75737619D01*
X65945952Y-75899523D01*
X65945952Y-76385238D01*
X66026904Y-76547142D01*
X66107857Y-76628095D01*
X66269761Y-76709047D01*
X66512619Y-76709047D01*
X65217380Y-76709047D02*
X65217380Y-75575714D01*
X65217380Y-75899523D02*
X65136428Y-75737619D01*
X65055476Y-75656666D01*
X64893571Y-75575714D01*
X64731666Y-75575714D01*
X63517380Y-76628095D02*
X63679285Y-76709047D01*
X64003095Y-76709047D01*
X64165000Y-76628095D01*
X64245952Y-76466190D01*
X64245952Y-75818571D01*
X64165000Y-75656666D01*
X64003095Y-75575714D01*
X63679285Y-75575714D01*
X63517380Y-75656666D01*
X63436428Y-75818571D01*
X63436428Y-75980476D01*
X64245952Y-76142380D01*
X60684047Y-75575714D02*
X60684047Y-76951904D01*
X60765000Y-77113809D01*
X60845952Y-77194761D01*
X61007857Y-77275714D01*
X61250714Y-77275714D01*
X61412619Y-77194761D01*
X60684047Y-76628095D02*
X60845952Y-76709047D01*
X61169761Y-76709047D01*
X61331666Y-76628095D01*
X61412619Y-76547142D01*
X61493571Y-76385238D01*
X61493571Y-75899523D01*
X61412619Y-75737619D01*
X61331666Y-75656666D01*
X61169761Y-75575714D01*
X60845952Y-75575714D01*
X60684047Y-75656666D01*
X59145952Y-76709047D02*
X59145952Y-75818571D01*
X59226904Y-75656666D01*
X59388809Y-75575714D01*
X59712619Y-75575714D01*
X59874523Y-75656666D01*
X59145952Y-76628095D02*
X59307857Y-76709047D01*
X59712619Y-76709047D01*
X59874523Y-76628095D01*
X59955476Y-76466190D01*
X59955476Y-76304285D01*
X59874523Y-76142380D01*
X59712619Y-76061428D01*
X59307857Y-76061428D01*
X59145952Y-75980476D01*
X57607857Y-76709047D02*
X57607857Y-75009047D01*
X57607857Y-76628095D02*
X57769761Y-76709047D01*
X58093571Y-76709047D01*
X58255476Y-76628095D01*
X58336428Y-76547142D01*
X58417380Y-76385238D01*
X58417380Y-75899523D01*
X58336428Y-75737619D01*
X58255476Y-75656666D01*
X58093571Y-75575714D01*
X57769761Y-75575714D01*
X57607857Y-75656666D01*
X56069761Y-75575714D02*
X56069761Y-76951904D01*
X56150714Y-77113809D01*
X56231666Y-77194761D01*
X56393571Y-77275714D01*
X56636428Y-77275714D01*
X56798333Y-77194761D01*
X56069761Y-76628095D02*
X56231666Y-76709047D01*
X56555476Y-76709047D01*
X56717380Y-76628095D01*
X56798333Y-76547142D01*
X56879285Y-76385238D01*
X56879285Y-75899523D01*
X56798333Y-75737619D01*
X56717380Y-75656666D01*
X56555476Y-75575714D01*
X56231666Y-75575714D01*
X56069761Y-75656666D01*
X54612619Y-76628095D02*
X54774523Y-76709047D01*
X55098333Y-76709047D01*
X55260238Y-76628095D01*
X55341190Y-76466190D01*
X55341190Y-75818571D01*
X55260238Y-75656666D01*
X55098333Y-75575714D01*
X54774523Y-75575714D01*
X54612619Y-75656666D01*
X54531666Y-75818571D01*
X54531666Y-75980476D01*
X55341190Y-76142380D01*
X54045952Y-75575714D02*
X53398333Y-75575714D01*
X53803095Y-75009047D02*
X53803095Y-76466190D01*
X53722142Y-76628095D01*
X53560238Y-76709047D01*
X53398333Y-76709047D01*
X52912619Y-76628095D02*
X52750714Y-76709047D01*
X52426904Y-76709047D01*
X52265000Y-76628095D01*
X52184047Y-76466190D01*
X52184047Y-76385238D01*
X52265000Y-76223333D01*
X52426904Y-76142380D01*
X52669761Y-76142380D01*
X52831666Y-76061428D01*
X52912619Y-75899523D01*
X52912619Y-75818571D01*
X52831666Y-75656666D01*
X52669761Y-75575714D01*
X52426904Y-75575714D01*
X52265000Y-75656666D01*
X51374523Y-76628095D02*
X51374523Y-76709047D01*
X51455476Y-76870952D01*
X51536428Y-76951904D01*
X49350714Y-75575714D02*
X49350714Y-77275714D01*
X49350714Y-75656666D02*
X49188809Y-75575714D01*
X48865000Y-75575714D01*
X48703095Y-75656666D01*
X48622142Y-75737619D01*
X48541190Y-75899523D01*
X48541190Y-76385238D01*
X48622142Y-76547142D01*
X48703095Y-76628095D01*
X48865000Y-76709047D01*
X49188809Y-76709047D01*
X49350714Y-76628095D01*
X47812619Y-76709047D02*
X47812619Y-75575714D01*
X47812619Y-75899523D02*
X47731666Y-75737619D01*
X47650714Y-75656666D01*
X47488809Y-75575714D01*
X47326904Y-75575714D01*
X46517380Y-76709047D02*
X46679285Y-76628095D01*
X46760238Y-76547142D01*
X46841190Y-76385238D01*
X46841190Y-75899523D01*
X46760238Y-75737619D01*
X46679285Y-75656666D01*
X46517380Y-75575714D01*
X46274523Y-75575714D01*
X46112619Y-75656666D01*
X46031666Y-75737619D01*
X45950714Y-75899523D01*
X45950714Y-76385238D01*
X46031666Y-76547142D01*
X46112619Y-76628095D01*
X46274523Y-76709047D01*
X46517380Y-76709047D01*
X45222142Y-75575714D02*
X45222142Y-77032857D01*
X45303095Y-77194761D01*
X45465000Y-77275714D01*
X45545952Y-77275714D01*
X45222142Y-75009047D02*
X45303095Y-75090000D01*
X45222142Y-75170952D01*
X45141190Y-75090000D01*
X45222142Y-75009047D01*
X45222142Y-75170952D01*
X43765000Y-76628095D02*
X43926904Y-76709047D01*
X44250714Y-76709047D01*
X44412619Y-76628095D01*
X44493571Y-76466190D01*
X44493571Y-75818571D01*
X44412619Y-75656666D01*
X44250714Y-75575714D01*
X43926904Y-75575714D01*
X43765000Y-75656666D01*
X43684047Y-75818571D01*
X43684047Y-75980476D01*
X44493571Y-76142380D01*
X42226904Y-76628095D02*
X42388809Y-76709047D01*
X42712619Y-76709047D01*
X42874523Y-76628095D01*
X42955476Y-76547142D01*
X43036428Y-76385238D01*
X43036428Y-75899523D01*
X42955476Y-75737619D01*
X42874523Y-75656666D01*
X42712619Y-75575714D01*
X42388809Y-75575714D01*
X42226904Y-75656666D01*
X41741190Y-75575714D02*
X41093571Y-75575714D01*
X41498333Y-75009047D02*
X41498333Y-76466190D01*
X41417380Y-76628095D01*
X41255476Y-76709047D01*
X41093571Y-76709047D01*
X40607857Y-76628095D02*
X40445952Y-76709047D01*
X40122142Y-76709047D01*
X39960238Y-76628095D01*
X39879285Y-76466190D01*
X39879285Y-76385238D01*
X39960238Y-76223333D01*
X40122142Y-76142380D01*
X40365000Y-76142380D01*
X40526904Y-76061428D01*
X40607857Y-75899523D01*
X40607857Y-75818571D01*
X40526904Y-75656666D01*
X40365000Y-75575714D01*
X40122142Y-75575714D01*
X39960238Y-75656666D01*
X65986428Y-79509047D02*
X65986428Y-78618571D01*
X66067380Y-78456666D01*
X66229285Y-78375714D01*
X66553095Y-78375714D01*
X66715000Y-78456666D01*
X65986428Y-79428095D02*
X66148333Y-79509047D01*
X66553095Y-79509047D01*
X66715000Y-79428095D01*
X66795952Y-79266190D01*
X66795952Y-79104285D01*
X66715000Y-78942380D01*
X66553095Y-78861428D01*
X66148333Y-78861428D01*
X65986428Y-78780476D01*
X65176904Y-78375714D02*
X65176904Y-79509047D01*
X65176904Y-78537619D02*
X65095952Y-78456666D01*
X64934047Y-78375714D01*
X64691190Y-78375714D01*
X64529285Y-78456666D01*
X64448333Y-78618571D01*
X64448333Y-79509047D01*
X62910238Y-79509047D02*
X62910238Y-77809047D01*
X62910238Y-79428095D02*
X63072142Y-79509047D01*
X63395952Y-79509047D01*
X63557857Y-79428095D01*
X63638809Y-79347142D01*
X63719761Y-79185238D01*
X63719761Y-78699523D01*
X63638809Y-78537619D01*
X63557857Y-78456666D01*
X63395952Y-78375714D01*
X63072142Y-78375714D01*
X62910238Y-78456666D01*
X60076904Y-79428095D02*
X60238809Y-79509047D01*
X60562619Y-79509047D01*
X60724523Y-79428095D01*
X60805476Y-79347142D01*
X60886428Y-79185238D01*
X60886428Y-78699523D01*
X60805476Y-78537619D01*
X60724523Y-78456666D01*
X60562619Y-78375714D01*
X60238809Y-78375714D01*
X60076904Y-78456666D01*
X59105476Y-79509047D02*
X59267380Y-79428095D01*
X59348333Y-79347142D01*
X59429285Y-79185238D01*
X59429285Y-78699523D01*
X59348333Y-78537619D01*
X59267380Y-78456666D01*
X59105476Y-78375714D01*
X58862619Y-78375714D01*
X58700714Y-78456666D01*
X58619761Y-78537619D01*
X58538809Y-78699523D01*
X58538809Y-79185238D01*
X58619761Y-79347142D01*
X58700714Y-79428095D01*
X58862619Y-79509047D01*
X59105476Y-79509047D01*
X57567380Y-79509047D02*
X57729285Y-79428095D01*
X57810238Y-79347142D01*
X57891190Y-79185238D01*
X57891190Y-78699523D01*
X57810238Y-78537619D01*
X57729285Y-78456666D01*
X57567380Y-78375714D01*
X57324523Y-78375714D01*
X57162619Y-78456666D01*
X57081666Y-78537619D01*
X57000714Y-78699523D01*
X57000714Y-79185238D01*
X57081666Y-79347142D01*
X57162619Y-79428095D01*
X57324523Y-79509047D01*
X57567380Y-79509047D01*
X56029285Y-79509047D02*
X56191190Y-79428095D01*
X56272142Y-79266190D01*
X56272142Y-77809047D01*
X54086428Y-79509047D02*
X54086428Y-77809047D01*
X53357857Y-79509047D02*
X53357857Y-78618571D01*
X53438809Y-78456666D01*
X53600714Y-78375714D01*
X53843571Y-78375714D01*
X54005476Y-78456666D01*
X54086428Y-78537619D01*
X51819761Y-79509047D02*
X51819761Y-78618571D01*
X51900714Y-78456666D01*
X52062619Y-78375714D01*
X52386428Y-78375714D01*
X52548333Y-78456666D01*
X51819761Y-79428095D02*
X51981666Y-79509047D01*
X52386428Y-79509047D01*
X52548333Y-79428095D01*
X52629285Y-79266190D01*
X52629285Y-79104285D01*
X52548333Y-78942380D01*
X52386428Y-78861428D01*
X51981666Y-78861428D01*
X51819761Y-78780476D01*
X50281666Y-79428095D02*
X50443571Y-79509047D01*
X50767380Y-79509047D01*
X50929285Y-79428095D01*
X51010238Y-79347142D01*
X51091190Y-79185238D01*
X51091190Y-78699523D01*
X51010238Y-78537619D01*
X50929285Y-78456666D01*
X50767380Y-78375714D01*
X50443571Y-78375714D01*
X50281666Y-78456666D01*
X49553095Y-79509047D02*
X49553095Y-77809047D01*
X49391190Y-78861428D02*
X48905476Y-79509047D01*
X48905476Y-78375714D02*
X49553095Y-79023333D01*
X48257857Y-79428095D02*
X48095952Y-79509047D01*
X47772142Y-79509047D01*
X47610238Y-79428095D01*
X47529285Y-79266190D01*
X47529285Y-79185238D01*
X47610238Y-79023333D01*
X47772142Y-78942380D01*
X48015000Y-78942380D01*
X48176904Y-78861428D01*
X48257857Y-78699523D01*
X48257857Y-78618571D01*
X48176904Y-78456666D01*
X48015000Y-78375714D01*
X47772142Y-78375714D01*
X47610238Y-78456666D01*
X68495952Y-81175714D02*
X67848333Y-81175714D01*
X68253095Y-82309047D02*
X68253095Y-80851904D01*
X68172142Y-80690000D01*
X68010238Y-80609047D01*
X67848333Y-80609047D01*
X67038809Y-82309047D02*
X67200714Y-82228095D01*
X67281666Y-82147142D01*
X67362619Y-81985238D01*
X67362619Y-81499523D01*
X67281666Y-81337619D01*
X67200714Y-81256666D01*
X67038809Y-81175714D01*
X66795952Y-81175714D01*
X66634047Y-81256666D01*
X66553095Y-81337619D01*
X66472142Y-81499523D01*
X66472142Y-81985238D01*
X66553095Y-82147142D01*
X66634047Y-82228095D01*
X66795952Y-82309047D01*
X67038809Y-82309047D01*
X65500714Y-82309047D02*
X65662619Y-82228095D01*
X65743571Y-82066190D01*
X65743571Y-80609047D01*
X64610238Y-82309047D02*
X64772142Y-82228095D01*
X64853095Y-82066190D01*
X64853095Y-80609047D01*
X63719761Y-82309047D02*
X63881666Y-82228095D01*
X63962619Y-82147142D01*
X64043571Y-81985238D01*
X64043571Y-81499523D01*
X63962619Y-81337619D01*
X63881666Y-81256666D01*
X63719761Y-81175714D01*
X63476904Y-81175714D01*
X63315000Y-81256666D01*
X63234047Y-81337619D01*
X63153095Y-81499523D01*
X63153095Y-81985238D01*
X63234047Y-82147142D01*
X63315000Y-82228095D01*
X63476904Y-82309047D01*
X63719761Y-82309047D01*
X62586428Y-81175714D02*
X62262619Y-82309047D01*
X61938809Y-81499523D01*
X61615000Y-82309047D01*
X61291190Y-81175714D01*
X58295952Y-81499523D02*
X58376904Y-81418571D01*
X58538809Y-81337619D01*
X58700714Y-81337619D01*
X58862619Y-81418571D01*
X58943571Y-81499523D01*
X59024523Y-81661428D01*
X59024523Y-81823333D01*
X58943571Y-81985238D01*
X58862619Y-82066190D01*
X58700714Y-82147142D01*
X58538809Y-82147142D01*
X58376904Y-82066190D01*
X58295952Y-81985238D01*
X58295952Y-81337619D02*
X58295952Y-81985238D01*
X58215000Y-82066190D01*
X58134047Y-82066190D01*
X57972142Y-81985238D01*
X57891190Y-81823333D01*
X57891190Y-81418571D01*
X58053095Y-81175714D01*
X58295952Y-81013809D01*
X58619761Y-80932857D01*
X58943571Y-81013809D01*
X59186428Y-81175714D01*
X59348333Y-81418571D01*
X59429285Y-81742380D01*
X59348333Y-82066190D01*
X59186428Y-82309047D01*
X58943571Y-82470952D01*
X58619761Y-82551904D01*
X58295952Y-82470952D01*
X58053095Y-82309047D01*
X57324523Y-81175714D02*
X57000714Y-82309047D01*
X56676904Y-81499523D01*
X56353095Y-82309047D01*
X56029285Y-81175714D01*
X55381666Y-82309047D02*
X55381666Y-80609047D01*
X54653095Y-82309047D02*
X54653095Y-81418571D01*
X54734047Y-81256666D01*
X54895952Y-81175714D01*
X55138809Y-81175714D01*
X55300714Y-81256666D01*
X55381666Y-81337619D01*
X53843571Y-82309047D02*
X53843571Y-81175714D01*
X53843571Y-80609047D02*
X53924523Y-80690000D01*
X53843571Y-80770952D01*
X53762619Y-80690000D01*
X53843571Y-80609047D01*
X53843571Y-80770952D01*
X52305476Y-82309047D02*
X52305476Y-80609047D01*
X52305476Y-82228095D02*
X52467380Y-82309047D01*
X52791190Y-82309047D01*
X52953095Y-82228095D01*
X53034047Y-82147142D01*
X53115000Y-81985238D01*
X53115000Y-81499523D01*
X53034047Y-81337619D01*
X52953095Y-81256666D01*
X52791190Y-81175714D01*
X52467380Y-81175714D01*
X52305476Y-81256666D01*
X51900714Y-82470952D02*
X50605476Y-82470952D01*
X50200714Y-81175714D02*
X50200714Y-82309047D01*
X50200714Y-81337619D02*
X50119761Y-81256666D01*
X49957857Y-81175714D01*
X49715000Y-81175714D01*
X49553095Y-81256666D01*
X49472142Y-81418571D01*
X49472142Y-82309047D01*
X48662619Y-82309047D02*
X48662619Y-81175714D01*
X48662619Y-80609047D02*
X48743571Y-80690000D01*
X48662619Y-80770952D01*
X48581666Y-80690000D01*
X48662619Y-80609047D01*
X48662619Y-80770952D01*
X47853095Y-81175714D02*
X47853095Y-82309047D01*
X47853095Y-81337619D02*
X47772142Y-81256666D01*
X47610238Y-81175714D01*
X47367380Y-81175714D01*
X47205476Y-81256666D01*
X47124523Y-81418571D01*
X47124523Y-82309047D01*
X46315000Y-81175714D02*
X46315000Y-82632857D01*
X46395952Y-82794761D01*
X46557857Y-82875714D01*
X46638809Y-82875714D01*
X46315000Y-80609047D02*
X46395952Y-80690000D01*
X46315000Y-80770952D01*
X46234047Y-80690000D01*
X46315000Y-80609047D01*
X46315000Y-80770952D01*
X44776904Y-82309047D02*
X44776904Y-81418571D01*
X44857857Y-81256666D01*
X45019761Y-81175714D01*
X45343571Y-81175714D01*
X45505476Y-81256666D01*
X44776904Y-82228095D02*
X44938809Y-82309047D01*
X45343571Y-82309047D01*
X45505476Y-82228095D01*
X45586428Y-82066190D01*
X45586428Y-81904285D01*
X45505476Y-81742380D01*
X45343571Y-81661428D01*
X44938809Y-81661428D01*
X44776904Y-81580476D01*
M02*
