M48
; DRILL file {KiCad (5.1.5)-3} date 04/05/2021 12:01:20
; FORMAT={-:-/ absolute / inch / decimal}
; #@! TF.CreationDate,2021-05-04T12:01:20+03:00
; #@! TF.GenerationSoftware,Kicad,Pcbnew,(5.1.5)-3
FMAT,2
INCH
T1C0.0157
T2C0.0315
T3C0.0394
T4C0.0400
T5C0.0433
T6C0.0866
%
G90
G05
T1
X2.075Y-1.7069
X2.1831Y-3.7279
X2.3016Y-2.6246
X2.405Y-3.7486
X2.4173Y-2.9803
X2.4862Y-2.1423
X2.4882Y-2.248
X2.5866Y-2.2835
X2.5866Y-2.7244
X2.6201Y-1.8819
X2.7028Y-3.0453
X2.7123Y-3.5279
X2.7146Y-2.874
X2.7244Y-3.9055
X2.7367Y-2.3864
X2.8209Y-2.7008
X2.8307Y-3.9764
X2.8346Y-2.3287
X2.8642Y-2.2028
X2.9094Y-2.2106
X2.9094Y-2.2795
X2.9429Y-2.6654
X3.0079Y-2.6004
X3.0295Y-3.8228
X3.0846Y-3.437
X3.1004Y-2.4823
X3.1161Y-3.1319
X3.1437Y-2.9567
X3.1457Y-3.0512
X3.1811Y-2.2795
X3.1811Y-2.4173
X3.2264Y-3.0886
X3.2402Y-3.6732
X3.2795Y-2.1811
X3.3051Y-2.6994
X3.311Y-3.0157
X3.3504Y-3.0472
X3.3667Y-2.6246
X3.3681Y-3.1398
X3.3976Y-3.0512
X3.438Y-3.1042
X3.4567Y-3.2894
X3.4646Y-3.2362
X3.4665Y-2.7795
X3.5177Y-2.2638
X3.5492Y-2.8228
X3.5492Y-2.8819
X3.5551Y-2.7795
X3.5689Y-2.1654
X3.5886Y-3.0059
X3.5984Y-2.5669
X3.75Y-2.7943
X3.8996Y-3.0433
X3.9154Y-2.7323
X3.9193Y-2.9232
X3.9311Y-3.2559
X3.9637Y-2.5031
X4.0315Y-2.313
X4.0472Y-2.1614
X4.0906Y-2.8484
X4.1063Y-4.3701
X4.1201Y-3.0236
X4.1299Y-2.811
X4.1398Y-2.5984
X4.1457Y-2.4134
X4.1516Y-2.4705
X4.1535Y-2.2854
X4.2717Y-4.9075
X4.3707Y-2.226
X4.5039Y-3.0
X4.5295Y-2.1752
X4.6142Y-2.3268
X4.6161Y-2.4213
X4.628Y-4.6181
X4.6476Y-3.2382
X4.6496Y-3.1594
X4.748Y-3.0768
X4.7618Y-4.6181
X5.0039Y-4.6654
X5.0748Y-3.2776
X1.6157Y-5.1594
X1.6348Y-5.1135
X1.6348Y-5.2054
X1.6807Y-5.0945
X1.6807Y-5.2244
X1.7266Y-5.1135
X1.7266Y-5.2054
X1.7457Y-5.1594
X5.2142Y-5.1594
X5.2332Y-5.1135
X5.2332Y-5.2054
X5.2791Y-5.0945
X5.2791Y-5.2244
X5.3251Y-5.1135
X5.3251Y-5.2054
X5.3441Y-5.1594
X5.2142Y-1.561
X5.2332Y-1.5151
X5.2332Y-1.607
X5.2791Y-1.4961
X5.2791Y-1.626
X5.3251Y-1.5151
X5.3251Y-1.607
X5.3441Y-1.561
X1.6157Y-1.561
X1.6348Y-1.5151
X1.6348Y-1.607
X1.6807Y-1.4961
X1.6807Y-1.626
X1.7266Y-1.5151
X1.7266Y-1.607
X1.7457Y-1.561
T2
X3.624Y-3.8041
X3.924Y-3.8041
X4.3789Y-4.3209
X4.3789Y-4.4209
X4.6789Y-4.3209
X4.6789Y-4.4209
X4.5256Y-2.6112
X4.5256Y-2.7112
X4.5256Y-2.8112
X4.5256Y-2.9112
X4.8256Y-2.6112
X4.8256Y-2.7112
X4.8256Y-2.8112
X4.8256Y-2.9112
X4.3707Y-1.626
X4.3707Y-1.726
X4.3707Y-1.826
X4.3707Y-1.926
X4.3707Y-2.026
X4.3707Y-2.126
X4.3707Y-2.226
X4.3707Y-2.326
X4.3707Y-2.426
X4.3707Y-2.526
X4.3707Y-2.626
X4.3707Y-2.726
X4.3707Y-2.826
X4.3707Y-2.926
X4.3707Y-3.026
X4.3707Y-3.126
X4.3707Y-3.226
X4.3707Y-3.326
X4.3707Y-3.426
X4.3707Y-3.526
X4.3707Y-3.626
X4.3707Y-3.726
X4.3707Y-3.826
X4.3707Y-3.926
X4.9707Y-1.626
X4.9707Y-1.726
X4.9707Y-1.826
X4.9707Y-1.926
X4.9707Y-2.026
X4.9707Y-2.126
X4.9707Y-2.226
X4.9707Y-2.326
X4.9707Y-2.426
X4.9707Y-2.526
X4.9707Y-2.626
X4.9707Y-2.726
X4.9707Y-2.826
X4.9707Y-2.926
X4.9707Y-3.026
X4.9707Y-3.126
X4.9707Y-3.226
X4.9707Y-3.326
X4.9707Y-3.426
X4.9707Y-3.526
X4.9707Y-3.626
X4.9707Y-3.726
X4.9707Y-3.826
X4.9707Y-3.926
X4.8583Y-4.372
X5.1583Y-4.372
X4.622Y-4.8228
X4.622Y-4.9228
X4.622Y-5.0228
X4.622Y-5.1228
X4.922Y-4.8228
X4.922Y-4.9228
X4.922Y-5.0228
X4.922Y-5.1228
T3
X1.8638Y-4.6047
X1.8638Y-4.7047
X1.9638Y-4.6047
X1.9638Y-4.7047
X2.0638Y-4.6047
X2.0638Y-4.7047
X2.1638Y-4.6047
X2.1638Y-4.7047
X2.2638Y-4.6047
X2.2638Y-4.7047
X2.3638Y-4.6047
X2.3638Y-4.7047
X2.4638Y-4.6047
X2.4638Y-4.7047
X2.5638Y-4.6047
X2.5638Y-4.7047
X2.6638Y-4.6047
X2.6638Y-4.7047
X2.7638Y-4.6047
X2.7638Y-4.7047
X3.7018Y-1.5246
X3.7018Y-1.6246
X3.7018Y-1.7246
X3.7018Y-1.8246
X3.7018Y-1.9246
X3.7018Y-2.0246
X3.7018Y-2.1246
X3.7018Y-2.2246
X3.7018Y-2.3246
X3.7018Y-2.4246
X3.7018Y-2.5246
X3.7018Y-2.6246
X3.7018Y-2.7246
X3.8018Y-1.5246
X3.8018Y-1.6246
X3.8018Y-1.7246
X3.8018Y-1.8246
X3.8018Y-1.9246
X3.8018Y-2.0246
X3.8018Y-2.1246
X3.8018Y-2.2246
X3.8018Y-2.3246
X3.8018Y-2.4246
X3.8018Y-2.5246
X3.8018Y-2.6246
X3.8018Y-2.7246
X1.8618Y-4.1535
X1.9618Y-4.1535
X2.0618Y-4.1535
X2.1618Y-4.1535
X2.2618Y-4.1535
X2.3618Y-4.1535
X2.4618Y-4.1535
X2.5618Y-4.1535
X2.6618Y-4.1535
X2.7618Y-4.1535
X1.725Y-2.1
X1.725Y-2.2
X1.725Y-2.3
X1.725Y-2.4
X1.725Y-2.5
X1.725Y-2.6
X1.725Y-2.7
X1.725Y-2.8
X1.725Y-2.9
X3.7707Y-3.0886
X3.7707Y-3.1886
X3.7707Y-3.2886
X3.7707Y-3.3886
X3.7707Y-3.4886
X1.8618Y-4.3543
X1.9618Y-4.3543
X2.0618Y-4.3543
X2.1618Y-4.3543
X2.2618Y-4.3543
X2.3618Y-4.3543
X2.4618Y-4.3543
X2.5618Y-4.3543
X2.6618Y-4.3543
X2.7618Y-4.3543
X1.95Y-1.525
X1.95Y-1.625
X1.95Y-1.725
X1.95Y-1.825
X2.9203Y-3.0886
X2.9203Y-3.1886
X2.9203Y-3.2886
X2.9203Y-3.3886
X2.9203Y-3.4886
X2.9203Y-3.5886
X2.9203Y-3.6886
X2.3016Y-1.5246
X2.3016Y-1.6246
X2.3016Y-1.7246
X2.3016Y-1.8246
X2.3016Y-1.9246
X2.3016Y-2.0246
X2.3016Y-2.1246
X2.3016Y-2.2246
X2.3016Y-2.3246
X2.3016Y-2.4246
X2.3016Y-2.5246
X2.3016Y-2.6246
X2.3016Y-2.7246
X2.4016Y-1.5246
X2.4016Y-1.6246
X2.4016Y-1.7246
X2.4016Y-1.8246
X2.4016Y-1.9246
X2.4016Y-2.0246
X2.4016Y-2.1246
X2.4016Y-2.2246
X2.4016Y-2.3246
X2.4016Y-2.4246
X2.4016Y-2.5246
X2.4016Y-2.6246
X2.4016Y-2.7246
T4
X1.8858Y-3.4787
X1.8858Y-3.5787
X1.9858Y-3.4787
X1.9858Y-3.5787
X2.0858Y-3.4787
X2.0858Y-3.5787
X2.1858Y-3.4787
X2.1858Y-3.5787
X2.2858Y-3.4787
X2.2858Y-3.5787
T5
X1.8661Y-5.0197
X1.9661Y-5.0197
X2.0661Y-5.0197
X2.1661Y-5.0197
X2.2661Y-5.0197
X2.3661Y-5.0197
X2.4661Y-5.0197
X2.5661Y-5.0197
X2.6661Y-5.0197
X2.7661Y-5.0197
T6
X1.6807Y-5.1594
X5.2791Y-5.1594
X5.2791Y-1.561
X1.6807Y-1.561
T0
M30
